<?xml version="1.0" encoding="utf-8" standalone="no"?>
<!DOCTYPE svg PUBLIC "-//W3C//DTD SVG 1.1//EN"
  "http://www.w3.org/Graphics/SVG/1.1/DTD/svg11.dtd">
<svg xmlns:xlink="http://www.w3.org/1999/xlink" width="675.681562pt" height="385.540695pt" viewBox="0 0 675.681562 385.540695" xmlns="http://www.w3.org/2000/svg" version="1.1">
 <metadata>
  <rdf:RDF xmlns:dc="http://purl.org/dc/elements/1.1/" xmlns:cc="http://creativecommons.org/ns#" xmlns:rdf="http://www.w3.org/1999/02/22-rdf-syntax-ns#">
   <cc:Work>
    <dc:type rdf:resource="http://purl.org/dc/dcmitype/StillImage"/>
    <dc:date>2026-05-17T12:58:16.280404</dc:date>
    <dc:format>image/svg+xml</dc:format>
    <dc:creator>
     <cc:Agent>
      <dc:title>Matplotlib v3.10.9, https://matplotlib.org/</dc:title>
     </cc:Agent>
    </dc:creator>
   </cc:Work>
  </rdf:RDF>
 </metadata>
 <defs>
  <style type="text/css">*{stroke-linejoin: round; stroke-linecap: butt}</style>
 </defs>
 <g id="figure_1">
  <g id="patch_1">
   <path d="M 0 385.540695 
L 675.681562 385.540695 
L 675.681562 0 
L 0 0 
z
" style="fill: #ffffff"/>
  </g>
  <g id="axes_1">
   <g id="patch_2">
    <path d="M 48.595313 323.422125 
L 584.275312 323.422125 
L 584.275312 28.798125 
L 48.595313 28.798125 
z
" style="fill: #ffffff"/>
   </g>
   <g id="matplotlib.axis_1">
    <g id="xtick_1">
     <g id="line2d_1">
      <path d="M 48.595312 323.422125 
L 48.595312 28.798125 
" clip-path="url(#p472e9916ce)" style="fill: none; stroke-dasharray: 2.96,1.28; stroke-dashoffset: 0; stroke: #b0b0b0; stroke-opacity: 0.22; stroke-width: 0.8"/>
     </g>
     <g id="line2d_2">
      <defs>
       <path id="m4dc98c57f6" d="M 0 0 
L 0 3.5 
" style="stroke: #000000; stroke-width: 0.8"/>
      </defs>
      <g>
       <use xlink:href="#m4dc98c57f6" x="48.595312" y="323.422125" style="stroke: #000000; stroke-width: 0.8"/>
      </g>
     </g>
     <g id="text_1">
      <!-- 0.45 -->
      <g transform="translate(38.575781 337.260719) scale(0.09 -0.09)">
       <defs>
        <path id="DejaVuSans-30" d="M 2034 4250 
Q 1547 4250 1301 3770 
Q 1056 3291 1056 2328 
Q 1056 1369 1301 889 
Q 1547 409 2034 409 
Q 2525 409 2770 889 
Q 3016 1369 3016 2328 
Q 3016 3291 2770 3770 
Q 2525 4250 2034 4250 
z
M 2034 4750 
Q 2819 4750 3233 4129 
Q 3647 3509 3647 2328 
Q 3647 1150 3233 529 
Q 2819 -91 2034 -91 
Q 1250 -91 836 529 
Q 422 1150 422 2328 
Q 422 3509 836 4129 
Q 1250 4750 2034 4750 
z
" transform="scale(0.015625)"/>
        <path id="DejaVuSans-2e" d="M 684 794 
L 1344 794 
L 1344 0 
L 684 0 
L 684 794 
z
" transform="scale(0.015625)"/>
        <path id="DejaVuSans-34" d="M 2419 4116 
L 825 1625 
L 2419 1625 
L 2419 4116 
z
M 2253 4666 
L 3047 4666 
L 3047 1625 
L 3713 1625 
L 3713 1100 
L 3047 1100 
L 3047 0 
L 2419 0 
L 2419 1100 
L 313 1100 
L 313 1709 
L 2253 4666 
z
" transform="scale(0.015625)"/>
        <path id="DejaVuSans-35" d="M 691 4666 
L 3169 4666 
L 3169 4134 
L 1269 4134 
L 1269 2991 
Q 1406 3038 1543 3061 
Q 1681 3084 1819 3084 
Q 2600 3084 3056 2656 
Q 3513 2228 3513 1497 
Q 3513 744 3044 326 
Q 2575 -91 1722 -91 
Q 1428 -91 1123 -41 
Q 819 9 494 109 
L 494 744 
Q 775 591 1075 516 
Q 1375 441 1709 441 
Q 2250 441 2565 725 
Q 2881 1009 2881 1497 
Q 2881 1984 2565 2268 
Q 2250 2553 1709 2553 
Q 1456 2553 1204 2497 
Q 953 2441 691 2322 
L 691 4666 
z
" transform="scale(0.015625)"/>
       </defs>
       <use xlink:href="#DejaVuSans-30"/>
       <use xlink:href="#DejaVuSans-2e" transform="translate(63.623047 0)"/>
       <use xlink:href="#DejaVuSans-34" transform="translate(95.410156 0)"/>
       <use xlink:href="#DejaVuSans-35" transform="translate(159.033203 0)"/>
      </g>
     </g>
    </g>
    <g id="xtick_2">
     <g id="line2d_3">
      <path d="M 108.593616 323.422125 
L 108.593616 28.798125 
" clip-path="url(#p472e9916ce)" style="fill: none; stroke-dasharray: 2.96,1.28; stroke-dashoffset: 0; stroke: #b0b0b0; stroke-opacity: 0.22; stroke-width: 0.8"/>
     </g>
     <g id="line2d_4">
      <g>
       <use xlink:href="#m4dc98c57f6" x="108.593616" y="323.422125" style="stroke: #000000; stroke-width: 0.8"/>
      </g>
     </g>
     <g id="text_2">
      <!-- 0.50 -->
      <g transform="translate(98.574085 337.260719) scale(0.09 -0.09)">
       <use xlink:href="#DejaVuSans-30"/>
       <use xlink:href="#DejaVuSans-2e" transform="translate(63.623047 0)"/>
       <use xlink:href="#DejaVuSans-35" transform="translate(95.410156 0)"/>
       <use xlink:href="#DejaVuSans-30" transform="translate(159.033203 0)"/>
      </g>
     </g>
    </g>
    <g id="xtick_3">
     <g id="line2d_5">
      <path d="M 168.59192 323.422125 
L 168.59192 28.798125 
" clip-path="url(#p472e9916ce)" style="fill: none; stroke-dasharray: 2.96,1.28; stroke-dashoffset: 0; stroke: #b0b0b0; stroke-opacity: 0.22; stroke-width: 0.8"/>
     </g>
     <g id="line2d_6">
      <g>
       <use xlink:href="#m4dc98c57f6" x="168.59192" y="323.422125" style="stroke: #000000; stroke-width: 0.8"/>
      </g>
     </g>
     <g id="text_3">
      <!-- 0.55 -->
      <g transform="translate(158.572389 337.260719) scale(0.09 -0.09)">
       <use xlink:href="#DejaVuSans-30"/>
       <use xlink:href="#DejaVuSans-2e" transform="translate(63.623047 0)"/>
       <use xlink:href="#DejaVuSans-35" transform="translate(95.410156 0)"/>
       <use xlink:href="#DejaVuSans-35" transform="translate(159.033203 0)"/>
      </g>
     </g>
    </g>
    <g id="xtick_4">
     <g id="line2d_7">
      <path d="M 228.590224 323.422125 
L 228.590224 28.798125 
" clip-path="url(#p472e9916ce)" style="fill: none; stroke-dasharray: 2.96,1.28; stroke-dashoffset: 0; stroke: #b0b0b0; stroke-opacity: 0.22; stroke-width: 0.8"/>
     </g>
     <g id="line2d_8">
      <g>
       <use xlink:href="#m4dc98c57f6" x="228.590224" y="323.422125" style="stroke: #000000; stroke-width: 0.8"/>
      </g>
     </g>
     <g id="text_4">
      <!-- 0.60 -->
      <g transform="translate(218.570692 337.260719) scale(0.09 -0.09)">
       <defs>
        <path id="DejaVuSans-36" d="M 2113 2584 
Q 1688 2584 1439 2293 
Q 1191 2003 1191 1497 
Q 1191 994 1439 701 
Q 1688 409 2113 409 
Q 2538 409 2786 701 
Q 3034 994 3034 1497 
Q 3034 2003 2786 2293 
Q 2538 2584 2113 2584 
z
M 3366 4563 
L 3366 3988 
Q 3128 4100 2886 4159 
Q 2644 4219 2406 4219 
Q 1781 4219 1451 3797 
Q 1122 3375 1075 2522 
Q 1259 2794 1537 2939 
Q 1816 3084 2150 3084 
Q 2853 3084 3261 2657 
Q 3669 2231 3669 1497 
Q 3669 778 3244 343 
Q 2819 -91 2113 -91 
Q 1303 -91 875 529 
Q 447 1150 447 2328 
Q 447 3434 972 4092 
Q 1497 4750 2381 4750 
Q 2619 4750 2861 4703 
Q 3103 4656 3366 4563 
z
" transform="scale(0.015625)"/>
       </defs>
       <use xlink:href="#DejaVuSans-30"/>
       <use xlink:href="#DejaVuSans-2e" transform="translate(63.623047 0)"/>
       <use xlink:href="#DejaVuSans-36" transform="translate(95.410156 0)"/>
       <use xlink:href="#DejaVuSans-30" transform="translate(159.033203 0)"/>
      </g>
     </g>
    </g>
    <g id="xtick_5">
     <g id="line2d_9">
      <path d="M 288.588527 323.422125 
L 288.588527 28.798125 
" clip-path="url(#p472e9916ce)" style="fill: none; stroke-dasharray: 2.96,1.28; stroke-dashoffset: 0; stroke: #b0b0b0; stroke-opacity: 0.22; stroke-width: 0.8"/>
     </g>
     <g id="line2d_10">
      <g>
       <use xlink:href="#m4dc98c57f6" x="288.588527" y="323.422125" style="stroke: #000000; stroke-width: 0.8"/>
      </g>
     </g>
     <g id="text_5">
      <!-- 0.65 -->
      <g transform="translate(278.568996 337.260719) scale(0.09 -0.09)">
       <use xlink:href="#DejaVuSans-30"/>
       <use xlink:href="#DejaVuSans-2e" transform="translate(63.623047 0)"/>
       <use xlink:href="#DejaVuSans-36" transform="translate(95.410156 0)"/>
       <use xlink:href="#DejaVuSans-35" transform="translate(159.033203 0)"/>
      </g>
     </g>
    </g>
    <g id="xtick_6">
     <g id="line2d_11">
      <path d="M 348.586831 323.422125 
L 348.586831 28.798125 
" clip-path="url(#p472e9916ce)" style="fill: none; stroke-dasharray: 2.96,1.28; stroke-dashoffset: 0; stroke: #b0b0b0; stroke-opacity: 0.22; stroke-width: 0.8"/>
     </g>
     <g id="line2d_12">
      <g>
       <use xlink:href="#m4dc98c57f6" x="348.586831" y="323.422125" style="stroke: #000000; stroke-width: 0.8"/>
      </g>
     </g>
     <g id="text_6">
      <!-- 0.70 -->
      <g transform="translate(338.5673 337.260719) scale(0.09 -0.09)">
       <defs>
        <path id="DejaVuSans-37" d="M 525 4666 
L 3525 4666 
L 3525 4397 
L 1831 0 
L 1172 0 
L 2766 4134 
L 525 4134 
L 525 4666 
z
" transform="scale(0.015625)"/>
       </defs>
       <use xlink:href="#DejaVuSans-30"/>
       <use xlink:href="#DejaVuSans-2e" transform="translate(63.623047 0)"/>
       <use xlink:href="#DejaVuSans-37" transform="translate(95.410156 0)"/>
       <use xlink:href="#DejaVuSans-30" transform="translate(159.033203 0)"/>
      </g>
     </g>
    </g>
    <g id="xtick_7">
     <g id="line2d_13">
      <path d="M 408.585135 323.422125 
L 408.585135 28.798125 
" clip-path="url(#p472e9916ce)" style="fill: none; stroke-dasharray: 2.96,1.28; stroke-dashoffset: 0; stroke: #b0b0b0; stroke-opacity: 0.22; stroke-width: 0.8"/>
     </g>
     <g id="line2d_14">
      <g>
       <use xlink:href="#m4dc98c57f6" x="408.585135" y="323.422125" style="stroke: #000000; stroke-width: 0.8"/>
      </g>
     </g>
     <g id="text_7">
      <!-- 0.75 -->
      <g transform="translate(398.565604 337.260719) scale(0.09 -0.09)">
       <use xlink:href="#DejaVuSans-30"/>
       <use xlink:href="#DejaVuSans-2e" transform="translate(63.623047 0)"/>
       <use xlink:href="#DejaVuSans-37" transform="translate(95.410156 0)"/>
       <use xlink:href="#DejaVuSans-35" transform="translate(159.033203 0)"/>
      </g>
     </g>
    </g>
    <g id="xtick_8">
     <g id="line2d_15">
      <path d="M 468.583438 323.422125 
L 468.583438 28.798125 
" clip-path="url(#p472e9916ce)" style="fill: none; stroke-dasharray: 2.96,1.28; stroke-dashoffset: 0; stroke: #b0b0b0; stroke-opacity: 0.22; stroke-width: 0.8"/>
     </g>
     <g id="line2d_16">
      <g>
       <use xlink:href="#m4dc98c57f6" x="468.583438" y="323.422125" style="stroke: #000000; stroke-width: 0.8"/>
      </g>
     </g>
     <g id="text_8">
      <!-- 0.80 -->
      <g transform="translate(458.563907 337.260719) scale(0.09 -0.09)">
       <defs>
        <path id="DejaVuSans-38" d="M 2034 2216 
Q 1584 2216 1326 1975 
Q 1069 1734 1069 1313 
Q 1069 891 1326 650 
Q 1584 409 2034 409 
Q 2484 409 2743 651 
Q 3003 894 3003 1313 
Q 3003 1734 2745 1975 
Q 2488 2216 2034 2216 
z
M 1403 2484 
Q 997 2584 770 2862 
Q 544 3141 544 3541 
Q 544 4100 942 4425 
Q 1341 4750 2034 4750 
Q 2731 4750 3128 4425 
Q 3525 4100 3525 3541 
Q 3525 3141 3298 2862 
Q 3072 2584 2669 2484 
Q 3125 2378 3379 2068 
Q 3634 1759 3634 1313 
Q 3634 634 3220 271 
Q 2806 -91 2034 -91 
Q 1263 -91 848 271 
Q 434 634 434 1313 
Q 434 1759 690 2068 
Q 947 2378 1403 2484 
z
M 1172 3481 
Q 1172 3119 1398 2916 
Q 1625 2713 2034 2713 
Q 2441 2713 2670 2916 
Q 2900 3119 2900 3481 
Q 2900 3844 2670 4047 
Q 2441 4250 2034 4250 
Q 1625 4250 1398 4047 
Q 1172 3844 1172 3481 
z
" transform="scale(0.015625)"/>
       </defs>
       <use xlink:href="#DejaVuSans-30"/>
       <use xlink:href="#DejaVuSans-2e" transform="translate(63.623047 0)"/>
       <use xlink:href="#DejaVuSans-38" transform="translate(95.410156 0)"/>
       <use xlink:href="#DejaVuSans-30" transform="translate(159.033203 0)"/>
      </g>
     </g>
    </g>
    <g id="xtick_9">
     <g id="line2d_17">
      <path d="M 528.581742 323.422125 
L 528.581742 28.798125 
" clip-path="url(#p472e9916ce)" style="fill: none; stroke-dasharray: 2.96,1.28; stroke-dashoffset: 0; stroke: #b0b0b0; stroke-opacity: 0.22; stroke-width: 0.8"/>
     </g>
     <g id="line2d_18">
      <g>
       <use xlink:href="#m4dc98c57f6" x="528.581742" y="323.422125" style="stroke: #000000; stroke-width: 0.8"/>
      </g>
     </g>
     <g id="text_9">
      <!-- 0.85 -->
      <g transform="translate(518.562211 337.260719) scale(0.09 -0.09)">
       <use xlink:href="#DejaVuSans-30"/>
       <use xlink:href="#DejaVuSans-2e" transform="translate(63.623047 0)"/>
       <use xlink:href="#DejaVuSans-38" transform="translate(95.410156 0)"/>
       <use xlink:href="#DejaVuSans-35" transform="translate(159.033203 0)"/>
      </g>
     </g>
    </g>
    <g id="text_10">
     <!-- Final-holdout trade AUC (`trade_auc`) -->
     <g transform="translate(221.744687 351.130875) scale(0.1 -0.1)">
      <defs>
       <path id="DejaVuSans-46" d="M 628 4666 
L 3309 4666 
L 3309 4134 
L 1259 4134 
L 1259 2759 
L 3109 2759 
L 3109 2228 
L 1259 2228 
L 1259 0 
L 628 0 
L 628 4666 
z
" transform="scale(0.015625)"/>
       <path id="DejaVuSans-69" d="M 603 3500 
L 1178 3500 
L 1178 0 
L 603 0 
L 603 3500 
z
M 603 4863 
L 1178 4863 
L 1178 4134 
L 603 4134 
L 603 4863 
z
" transform="scale(0.015625)"/>
       <path id="DejaVuSans-6e" d="M 3513 2113 
L 3513 0 
L 2938 0 
L 2938 2094 
Q 2938 2591 2744 2837 
Q 2550 3084 2163 3084 
Q 1697 3084 1428 2787 
Q 1159 2491 1159 1978 
L 1159 0 
L 581 0 
L 581 3500 
L 1159 3500 
L 1159 2956 
Q 1366 3272 1645 3428 
Q 1925 3584 2291 3584 
Q 2894 3584 3203 3211 
Q 3513 2838 3513 2113 
z
" transform="scale(0.015625)"/>
       <path id="DejaVuSans-61" d="M 2194 1759 
Q 1497 1759 1228 1600 
Q 959 1441 959 1056 
Q 959 750 1161 570 
Q 1363 391 1709 391 
Q 2188 391 2477 730 
Q 2766 1069 2766 1631 
L 2766 1759 
L 2194 1759 
z
M 3341 1997 
L 3341 0 
L 2766 0 
L 2766 531 
Q 2569 213 2275 61 
Q 1981 -91 1556 -91 
Q 1019 -91 701 211 
Q 384 513 384 1019 
Q 384 1609 779 1909 
Q 1175 2209 1959 2209 
L 2766 2209 
L 2766 2266 
Q 2766 2663 2505 2880 
Q 2244 3097 1772 3097 
Q 1472 3097 1187 3025 
Q 903 2953 641 2809 
L 641 3341 
Q 956 3463 1253 3523 
Q 1550 3584 1831 3584 
Q 2591 3584 2966 3190 
Q 3341 2797 3341 1997 
z
" transform="scale(0.015625)"/>
       <path id="DejaVuSans-6c" d="M 603 4863 
L 1178 4863 
L 1178 0 
L 603 0 
L 603 4863 
z
" transform="scale(0.015625)"/>
       <path id="DejaVuSans-2d" d="M 313 2009 
L 1997 2009 
L 1997 1497 
L 313 1497 
L 313 2009 
z
" transform="scale(0.015625)"/>
       <path id="DejaVuSans-68" d="M 3513 2113 
L 3513 0 
L 2938 0 
L 2938 2094 
Q 2938 2591 2744 2837 
Q 2550 3084 2163 3084 
Q 1697 3084 1428 2787 
Q 1159 2491 1159 1978 
L 1159 0 
L 581 0 
L 581 4863 
L 1159 4863 
L 1159 2956 
Q 1366 3272 1645 3428 
Q 1925 3584 2291 3584 
Q 2894 3584 3203 3211 
Q 3513 2838 3513 2113 
z
" transform="scale(0.015625)"/>
       <path id="DejaVuSans-6f" d="M 1959 3097 
Q 1497 3097 1228 2736 
Q 959 2375 959 1747 
Q 959 1119 1226 758 
Q 1494 397 1959 397 
Q 2419 397 2687 759 
Q 2956 1122 2956 1747 
Q 2956 2369 2687 2733 
Q 2419 3097 1959 3097 
z
M 1959 3584 
Q 2709 3584 3137 3096 
Q 3566 2609 3566 1747 
Q 3566 888 3137 398 
Q 2709 -91 1959 -91 
Q 1206 -91 779 398 
Q 353 888 353 1747 
Q 353 2609 779 3096 
Q 1206 3584 1959 3584 
z
" transform="scale(0.015625)"/>
       <path id="DejaVuSans-64" d="M 2906 2969 
L 2906 4863 
L 3481 4863 
L 3481 0 
L 2906 0 
L 2906 525 
Q 2725 213 2448 61 
Q 2172 -91 1784 -91 
Q 1150 -91 751 415 
Q 353 922 353 1747 
Q 353 2572 751 3078 
Q 1150 3584 1784 3584 
Q 2172 3584 2448 3432 
Q 2725 3281 2906 2969 
z
M 947 1747 
Q 947 1113 1208 752 
Q 1469 391 1925 391 
Q 2381 391 2643 752 
Q 2906 1113 2906 1747 
Q 2906 2381 2643 2742 
Q 2381 3103 1925 3103 
Q 1469 3103 1208 2742 
Q 947 2381 947 1747 
z
" transform="scale(0.015625)"/>
       <path id="DejaVuSans-75" d="M 544 1381 
L 544 3500 
L 1119 3500 
L 1119 1403 
Q 1119 906 1312 657 
Q 1506 409 1894 409 
Q 2359 409 2629 706 
Q 2900 1003 2900 1516 
L 2900 3500 
L 3475 3500 
L 3475 0 
L 2900 0 
L 2900 538 
Q 2691 219 2414 64 
Q 2138 -91 1772 -91 
Q 1169 -91 856 284 
Q 544 659 544 1381 
z
M 1991 3584 
L 1991 3584 
z
" transform="scale(0.015625)"/>
       <path id="DejaVuSans-74" d="M 1172 4494 
L 1172 3500 
L 2356 3500 
L 2356 3053 
L 1172 3053 
L 1172 1153 
Q 1172 725 1289 603 
Q 1406 481 1766 481 
L 2356 481 
L 2356 0 
L 1766 0 
Q 1100 0 847 248 
Q 594 497 594 1153 
L 594 3053 
L 172 3053 
L 172 3500 
L 594 3500 
L 594 4494 
L 1172 4494 
z
" transform="scale(0.015625)"/>
       <path id="DejaVuSans-20" transform="scale(0.015625)"/>
       <path id="DejaVuSans-72" d="M 2631 2963 
Q 2534 3019 2420 3045 
Q 2306 3072 2169 3072 
Q 1681 3072 1420 2755 
Q 1159 2438 1159 1844 
L 1159 0 
L 581 0 
L 581 3500 
L 1159 3500 
L 1159 2956 
Q 1341 3275 1631 3429 
Q 1922 3584 2338 3584 
Q 2397 3584 2469 3576 
Q 2541 3569 2628 3553 
L 2631 2963 
z
" transform="scale(0.015625)"/>
       <path id="DejaVuSans-65" d="M 3597 1894 
L 3597 1613 
L 953 1613 
Q 991 1019 1311 708 
Q 1631 397 2203 397 
Q 2534 397 2845 478 
Q 3156 559 3463 722 
L 3463 178 
Q 3153 47 2828 -22 
Q 2503 -91 2169 -91 
Q 1331 -91 842 396 
Q 353 884 353 1716 
Q 353 2575 817 3079 
Q 1281 3584 2069 3584 
Q 2775 3584 3186 3129 
Q 3597 2675 3597 1894 
z
M 3022 2063 
Q 3016 2534 2758 2815 
Q 2500 3097 2075 3097 
Q 1594 3097 1305 2825 
Q 1016 2553 972 2059 
L 3022 2063 
z
" transform="scale(0.015625)"/>
       <path id="DejaVuSans-41" d="M 2188 4044 
L 1331 1722 
L 3047 1722 
L 2188 4044 
z
M 1831 4666 
L 2547 4666 
L 4325 0 
L 3669 0 
L 3244 1197 
L 1141 1197 
L 716 0 
L 50 0 
L 1831 4666 
z
" transform="scale(0.015625)"/>
       <path id="DejaVuSans-55" d="M 556 4666 
L 1191 4666 
L 1191 1831 
Q 1191 1081 1462 751 
Q 1734 422 2344 422 
Q 2950 422 3222 751 
Q 3494 1081 3494 1831 
L 3494 4666 
L 4128 4666 
L 4128 1753 
Q 4128 841 3676 375 
Q 3225 -91 2344 -91 
Q 1459 -91 1007 375 
Q 556 841 556 1753 
L 556 4666 
z
" transform="scale(0.015625)"/>
       <path id="DejaVuSans-43" d="M 4122 4306 
L 4122 3641 
Q 3803 3938 3442 4084 
Q 3081 4231 2675 4231 
Q 1875 4231 1450 3742 
Q 1025 3253 1025 2328 
Q 1025 1406 1450 917 
Q 1875 428 2675 428 
Q 3081 428 3442 575 
Q 3803 722 4122 1019 
L 4122 359 
Q 3791 134 3420 21 
Q 3050 -91 2638 -91 
Q 1578 -91 968 557 
Q 359 1206 359 2328 
Q 359 3453 968 4101 
Q 1578 4750 2638 4750 
Q 3056 4750 3426 4639 
Q 3797 4528 4122 4306 
z
" transform="scale(0.015625)"/>
       <path id="DejaVuSans-28" d="M 1984 4856 
Q 1566 4138 1362 3434 
Q 1159 2731 1159 2009 
Q 1159 1288 1364 580 
Q 1569 -128 1984 -844 
L 1484 -844 
Q 1016 -109 783 600 
Q 550 1309 550 2009 
Q 550 2706 781 3412 
Q 1013 4119 1484 4856 
L 1984 4856 
z
" transform="scale(0.015625)"/>
       <path id="DejaVuSans-60" d="M 1147 5119 
L 2028 3950 
L 1550 3950 
L 531 5119 
L 1147 5119 
z
" transform="scale(0.015625)"/>
       <path id="DejaVuSans-5f" d="M 3263 -1063 
L 3263 -1509 
L -63 -1509 
L -63 -1063 
L 3263 -1063 
z
" transform="scale(0.015625)"/>
       <path id="DejaVuSans-63" d="M 3122 3366 
L 3122 2828 
Q 2878 2963 2633 3030 
Q 2388 3097 2138 3097 
Q 1578 3097 1268 2742 
Q 959 2388 959 1747 
Q 959 1106 1268 751 
Q 1578 397 2138 397 
Q 2388 397 2633 464 
Q 2878 531 3122 666 
L 3122 134 
Q 2881 22 2623 -34 
Q 2366 -91 2075 -91 
Q 1284 -91 818 406 
Q 353 903 353 1747 
Q 353 2603 823 3093 
Q 1294 3584 2113 3584 
Q 2378 3584 2631 3529 
Q 2884 3475 3122 3366 
z
" transform="scale(0.015625)"/>
       <path id="DejaVuSans-29" d="M 513 4856 
L 1013 4856 
Q 1481 4119 1714 3412 
Q 1947 2706 1947 2009 
Q 1947 1309 1714 600 
Q 1481 -109 1013 -844 
L 513 -844 
Q 928 -128 1133 580 
Q 1338 1288 1338 2009 
Q 1338 2731 1133 3434 
Q 928 4138 513 4856 
z
" transform="scale(0.015625)"/>
      </defs>
      <use xlink:href="#DejaVuSans-46"/>
      <use xlink:href="#DejaVuSans-69" transform="translate(50.269531 0)"/>
      <use xlink:href="#DejaVuSans-6e" transform="translate(78.052734 0)"/>
      <use xlink:href="#DejaVuSans-61" transform="translate(141.431641 0)"/>
      <use xlink:href="#DejaVuSans-6c" transform="translate(202.710938 0)"/>
      <use xlink:href="#DejaVuSans-2d" transform="translate(230.494141 0)"/>
      <use xlink:href="#DejaVuSans-68" transform="translate(266.578125 0)"/>
      <use xlink:href="#DejaVuSans-6f" transform="translate(329.957031 0)"/>
      <use xlink:href="#DejaVuSans-6c" transform="translate(391.138672 0)"/>
      <use xlink:href="#DejaVuSans-64" transform="translate(418.921875 0)"/>
      <use xlink:href="#DejaVuSans-6f" transform="translate(482.398438 0)"/>
      <use xlink:href="#DejaVuSans-75" transform="translate(543.580078 0)"/>
      <use xlink:href="#DejaVuSans-74" transform="translate(606.958984 0)"/>
      <use xlink:href="#DejaVuSans-20" transform="translate(646.167969 0)"/>
      <use xlink:href="#DejaVuSans-74" transform="translate(677.955078 0)"/>
      <use xlink:href="#DejaVuSans-72" transform="translate(717.164062 0)"/>
      <use xlink:href="#DejaVuSans-61" transform="translate(758.277344 0)"/>
      <use xlink:href="#DejaVuSans-64" transform="translate(819.556641 0)"/>
      <use xlink:href="#DejaVuSans-65" transform="translate(883.033203 0)"/>
      <use xlink:href="#DejaVuSans-20" transform="translate(944.556641 0)"/>
      <use xlink:href="#DejaVuSans-41" transform="translate(976.34375 0)"/>
      <use xlink:href="#DejaVuSans-55" transform="translate(1044.751953 0)"/>
      <use xlink:href="#DejaVuSans-43" transform="translate(1117.945312 0)"/>
      <use xlink:href="#DejaVuSans-20" transform="translate(1187.769531 0)"/>
      <use xlink:href="#DejaVuSans-28" transform="translate(1219.556641 0)"/>
      <use xlink:href="#DejaVuSans-60" transform="translate(1258.570312 0)"/>
      <use xlink:href="#DejaVuSans-74" transform="translate(1308.570312 0)"/>
      <use xlink:href="#DejaVuSans-72" transform="translate(1347.779297 0)"/>
      <use xlink:href="#DejaVuSans-61" transform="translate(1388.892578 0)"/>
      <use xlink:href="#DejaVuSans-64" transform="translate(1450.171875 0)"/>
      <use xlink:href="#DejaVuSans-65" transform="translate(1513.648438 0)"/>
      <use xlink:href="#DejaVuSans-5f" transform="translate(1575.171875 0)"/>
      <use xlink:href="#DejaVuSans-61" transform="translate(1625.171875 0)"/>
      <use xlink:href="#DejaVuSans-75" transform="translate(1686.451172 0)"/>
      <use xlink:href="#DejaVuSans-63" transform="translate(1749.830078 0)"/>
      <use xlink:href="#DejaVuSans-60" transform="translate(1804.810547 0)"/>
      <use xlink:href="#DejaVuSans-29" transform="translate(1854.810547 0)"/>
     </g>
    </g>
   </g>
   <g id="matplotlib.axis_2">
    <g id="ytick_1">
     <g id="line2d_19">
      <path d="M 48.595313 313.711305 
L 584.275312 313.711305 
" clip-path="url(#p472e9916ce)" style="fill: none; stroke-dasharray: 2.96,1.28; stroke-dashoffset: 0; stroke: #b0b0b0; stroke-opacity: 0.22; stroke-width: 0.8"/>
     </g>
     <g id="line2d_20">
      <defs>
       <path id="m20304d8c67" d="M 0 0 
L -3.5 0 
" style="stroke: #000000; stroke-width: 0.8"/>
      </defs>
      <g>
       <use xlink:href="#m20304d8c67" x="48.595313" y="313.711305" style="stroke: #000000; stroke-width: 0.8"/>
      </g>
     </g>
     <g id="text_11">
      <!-- 0.50 -->
      <g transform="translate(21.55625 317.130602) scale(0.09 -0.09)">
       <use xlink:href="#DejaVuSans-30"/>
       <use xlink:href="#DejaVuSans-2e" transform="translate(63.623047 0)"/>
       <use xlink:href="#DejaVuSans-35" transform="translate(95.410156 0)"/>
       <use xlink:href="#DejaVuSans-30" transform="translate(159.033203 0)"/>
      </g>
     </g>
    </g>
    <g id="ytick_2">
     <g id="line2d_21">
      <path d="M 48.595313 253.421528 
L 584.275312 253.421528 
" clip-path="url(#p472e9916ce)" style="fill: none; stroke-dasharray: 2.96,1.28; stroke-dashoffset: 0; stroke: #b0b0b0; stroke-opacity: 0.22; stroke-width: 0.8"/>
     </g>
     <g id="line2d_22">
      <g>
       <use xlink:href="#m20304d8c67" x="48.595313" y="253.421528" style="stroke: #000000; stroke-width: 0.8"/>
      </g>
     </g>
     <g id="text_12">
      <!-- 0.55 -->
      <g transform="translate(21.55625 256.840825) scale(0.09 -0.09)">
       <use xlink:href="#DejaVuSans-30"/>
       <use xlink:href="#DejaVuSans-2e" transform="translate(63.623047 0)"/>
       <use xlink:href="#DejaVuSans-35" transform="translate(95.410156 0)"/>
       <use xlink:href="#DejaVuSans-35" transform="translate(159.033203 0)"/>
      </g>
     </g>
    </g>
    <g id="ytick_3">
     <g id="line2d_23">
      <path d="M 48.595313 193.131751 
L 584.275312 193.131751 
" clip-path="url(#p472e9916ce)" style="fill: none; stroke-dasharray: 2.96,1.28; stroke-dashoffset: 0; stroke: #b0b0b0; stroke-opacity: 0.22; stroke-width: 0.8"/>
     </g>
     <g id="line2d_24">
      <g>
       <use xlink:href="#m20304d8c67" x="48.595313" y="193.131751" style="stroke: #000000; stroke-width: 0.8"/>
      </g>
     </g>
     <g id="text_13">
      <!-- 0.60 -->
      <g transform="translate(21.55625 196.551048) scale(0.09 -0.09)">
       <use xlink:href="#DejaVuSans-30"/>
       <use xlink:href="#DejaVuSans-2e" transform="translate(63.623047 0)"/>
       <use xlink:href="#DejaVuSans-36" transform="translate(95.410156 0)"/>
       <use xlink:href="#DejaVuSans-30" transform="translate(159.033203 0)"/>
      </g>
     </g>
    </g>
    <g id="ytick_4">
     <g id="line2d_25">
      <path d="M 48.595313 132.841974 
L 584.275312 132.841974 
" clip-path="url(#p472e9916ce)" style="fill: none; stroke-dasharray: 2.96,1.28; stroke-dashoffset: 0; stroke: #b0b0b0; stroke-opacity: 0.22; stroke-width: 0.8"/>
     </g>
     <g id="line2d_26">
      <g>
       <use xlink:href="#m20304d8c67" x="48.595313" y="132.841974" style="stroke: #000000; stroke-width: 0.8"/>
      </g>
     </g>
     <g id="text_14">
      <!-- 0.65 -->
      <g transform="translate(21.55625 136.261271) scale(0.09 -0.09)">
       <use xlink:href="#DejaVuSans-30"/>
       <use xlink:href="#DejaVuSans-2e" transform="translate(63.623047 0)"/>
       <use xlink:href="#DejaVuSans-36" transform="translate(95.410156 0)"/>
       <use xlink:href="#DejaVuSans-35" transform="translate(159.033203 0)"/>
      </g>
     </g>
    </g>
    <g id="ytick_5">
     <g id="line2d_27">
      <path d="M 48.595313 72.552197 
L 584.275312 72.552197 
" clip-path="url(#p472e9916ce)" style="fill: none; stroke-dasharray: 2.96,1.28; stroke-dashoffset: 0; stroke: #b0b0b0; stroke-opacity: 0.22; stroke-width: 0.8"/>
     </g>
     <g id="line2d_28">
      <g>
       <use xlink:href="#m20304d8c67" x="48.595313" y="72.552197" style="stroke: #000000; stroke-width: 0.8"/>
      </g>
     </g>
     <g id="text_15">
      <!-- 0.70 -->
      <g transform="translate(21.55625 75.971494) scale(0.09 -0.09)">
       <use xlink:href="#DejaVuSans-30"/>
       <use xlink:href="#DejaVuSans-2e" transform="translate(63.623047 0)"/>
       <use xlink:href="#DejaVuSans-37" transform="translate(95.410156 0)"/>
       <use xlink:href="#DejaVuSans-30" transform="translate(159.033203 0)"/>
      </g>
     </g>
    </g>
    <g id="text_16">
     <!-- Final-holdout directional AUC (`dir_auc`) -->
     <g transform="translate(15.198438 277.121062) rotate(-90) scale(0.1 -0.1)">
      <use xlink:href="#DejaVuSans-46"/>
      <use xlink:href="#DejaVuSans-69" transform="translate(50.269531 0)"/>
      <use xlink:href="#DejaVuSans-6e" transform="translate(78.052734 0)"/>
      <use xlink:href="#DejaVuSans-61" transform="translate(141.431641 0)"/>
      <use xlink:href="#DejaVuSans-6c" transform="translate(202.710938 0)"/>
      <use xlink:href="#DejaVuSans-2d" transform="translate(230.494141 0)"/>
      <use xlink:href="#DejaVuSans-68" transform="translate(266.578125 0)"/>
      <use xlink:href="#DejaVuSans-6f" transform="translate(329.957031 0)"/>
      <use xlink:href="#DejaVuSans-6c" transform="translate(391.138672 0)"/>
      <use xlink:href="#DejaVuSans-64" transform="translate(418.921875 0)"/>
      <use xlink:href="#DejaVuSans-6f" transform="translate(482.398438 0)"/>
      <use xlink:href="#DejaVuSans-75" transform="translate(543.580078 0)"/>
      <use xlink:href="#DejaVuSans-74" transform="translate(606.958984 0)"/>
      <use xlink:href="#DejaVuSans-20" transform="translate(646.167969 0)"/>
      <use xlink:href="#DejaVuSans-64" transform="translate(677.955078 0)"/>
      <use xlink:href="#DejaVuSans-69" transform="translate(741.431641 0)"/>
      <use xlink:href="#DejaVuSans-72" transform="translate(769.214844 0)"/>
      <use xlink:href="#DejaVuSans-65" transform="translate(808.078125 0)"/>
      <use xlink:href="#DejaVuSans-63" transform="translate(869.601562 0)"/>
      <use xlink:href="#DejaVuSans-74" transform="translate(924.582031 0)"/>
      <use xlink:href="#DejaVuSans-69" transform="translate(963.791016 0)"/>
      <use xlink:href="#DejaVuSans-6f" transform="translate(991.574219 0)"/>
      <use xlink:href="#DejaVuSans-6e" transform="translate(1052.755859 0)"/>
      <use xlink:href="#DejaVuSans-61" transform="translate(1116.134766 0)"/>
      <use xlink:href="#DejaVuSans-6c" transform="translate(1177.414062 0)"/>
      <use xlink:href="#DejaVuSans-20" transform="translate(1205.197266 0)"/>
      <use xlink:href="#DejaVuSans-41" transform="translate(1236.984375 0)"/>
      <use xlink:href="#DejaVuSans-55" transform="translate(1305.392578 0)"/>
      <use xlink:href="#DejaVuSans-43" transform="translate(1378.585938 0)"/>
      <use xlink:href="#DejaVuSans-20" transform="translate(1448.410156 0)"/>
      <use xlink:href="#DejaVuSans-28" transform="translate(1480.197266 0)"/>
      <use xlink:href="#DejaVuSans-60" transform="translate(1519.210938 0)"/>
      <use xlink:href="#DejaVuSans-64" transform="translate(1569.210938 0)"/>
      <use xlink:href="#DejaVuSans-69" transform="translate(1632.6875 0)"/>
      <use xlink:href="#DejaVuSans-72" transform="translate(1660.470703 0)"/>
      <use xlink:href="#DejaVuSans-5f" transform="translate(1701.583984 0)"/>
      <use xlink:href="#DejaVuSans-61" transform="translate(1751.583984 0)"/>
      <use xlink:href="#DejaVuSans-75" transform="translate(1812.863281 0)"/>
      <use xlink:href="#DejaVuSans-63" transform="translate(1876.242188 0)"/>
      <use xlink:href="#DejaVuSans-60" transform="translate(1931.222656 0)"/>
      <use xlink:href="#DejaVuSans-29" transform="translate(1981.222656 0)"/>
     </g>
    </g>
   </g>
   <g id="line2d_29">
    <path d="M 108.593616 323.422125 
L 108.593616 28.798125 
" clip-path="url(#p472e9916ce)" style="fill: none; stroke-dasharray: 3.7,1.6; stroke-dashoffset: 0; stroke: #64748b; stroke-opacity: 0.75"/>
   </g>
   <g id="line2d_30">
    <path d="M 48.595313 313.711305 
L 584.275312 313.711305 
" clip-path="url(#p472e9916ce)" style="fill: none; stroke-dasharray: 3.7,1.6; stroke-dashoffset: 0; stroke: #64748b; stroke-opacity: 0.75"/>
   </g>
   <g id="line2d_31">
    <path d="M 98.929744 323.422125 
L 392.129372 28.798125 
" clip-path="url(#p472e9916ce)" style="fill: none; stroke-dasharray: 0.9,1.485; stroke-dashoffset: 0; stroke: #64748b; stroke-opacity: 0.65; stroke-width: 0.9"/>
   </g>
   <g id="patch_3">
    <path d="M 355.018181 168.733865 
Q 361.931358 164.309486 367.243659 160.909655 
" style="fill: none; opacity: 0.86; stroke: #4c78a8; stroke-width: 1.7; stroke-linecap: round"/>
    <path d="M 362.796463 161.381302 
L 367.243659 160.909655 
L 364.952659 164.7504 
" style="fill: none; opacity: 0.86; stroke: #4c78a8; stroke-width: 1.7; stroke-linecap: round"/>
   </g>
   <g id="patch_4">
    <path d="M 279.438595 283.367831 
Q 278.909615 283.437959 280.264808 283.258298 
" style="fill: none; opacity: 0.86; stroke: #4c78a8; stroke-width: 1.7; stroke-linecap: round"/>
    <path d="M 284.492958 284.715262 
L 280.264808 283.258298 
L 283.967269 280.749956 
" style="fill: none; opacity: 0.86; stroke: #4c78a8; stroke-width: 1.7; stroke-linecap: round"/>
   </g>
   <g id="patch_5">
    <path d="M 103.652695 206.588547 
Q 314.342759 204.603996 523.132248 202.637347 
" style="fill: none; opacity: 0.86; stroke: #f58518; stroke-width: 1.7; stroke-linecap: round"/>
    <path d="M 519.113588 200.675111 
L 523.132248 202.637347 
L 519.151264 204.674934 
" style="fill: none; opacity: 0.86; stroke: #f58518; stroke-width: 1.7; stroke-linecap: round"/>
   </g>
   <g id="patch_6">
    <path d="M 318.509984 166.916772 
Q 344.398438 120.411421 369.362427 75.566753 
" style="fill: none; opacity: 0.86; stroke: #72b7b2; stroke-width: 1.7; stroke-linecap: round"/>
    <path d="M 365.66938 78.088934 
L 369.362427 75.566753 
L 369.164344 80.0345 
" style="fill: none; opacity: 0.86; stroke: #72b7b2; stroke-width: 1.7; stroke-linecap: round"/>
   </g>
   <g id="patch_7">
    <path d="M 48.595313 323.422125 
L 48.595313 28.798125 
" style="fill: none; stroke: #000000; stroke-width: 0.8; stroke-linejoin: miter; stroke-linecap: square"/>
   </g>
   <g id="patch_8">
    <path d="M 48.595312 323.422125 
L 584.275312 323.422125 
" style="fill: none; stroke: #000000; stroke-width: 0.8; stroke-linejoin: miter; stroke-linecap: square"/>
   </g>
   <g id="text_17">
    <!-- 5min -->
    <g style="fill: #0f172a" transform="translate(385.931428 162.037382) scale(0.08 -0.08)">
     <defs>
      <path id="DejaVuSans-6d" d="M 3328 2828 
Q 3544 3216 3844 3400 
Q 4144 3584 4550 3584 
Q 5097 3584 5394 3201 
Q 5691 2819 5691 2113 
L 5691 0 
L 5113 0 
L 5113 2094 
Q 5113 2597 4934 2840 
Q 4756 3084 4391 3084 
Q 3944 3084 3684 2787 
Q 3425 2491 3425 1978 
L 3425 0 
L 2847 0 
L 2847 2094 
Q 2847 2600 2669 2842 
Q 2491 3084 2119 3084 
Q 1678 3084 1418 2786 
Q 1159 2488 1159 1978 
L 1159 0 
L 581 0 
L 581 3500 
L 1159 3500 
L 1159 2956 
Q 1356 3278 1631 3431 
Q 1906 3584 2284 3584 
Q 2666 3584 2933 3390 
Q 3200 3197 3328 2828 
z
" transform="scale(0.015625)"/>
     </defs>
     <use xlink:href="#DejaVuSans-35"/>
     <use xlink:href="#DejaVuSans-6d" transform="translate(63.623047 0)"/>
     <use xlink:href="#DejaVuSans-69" transform="translate(161.035156 0)"/>
     <use xlink:href="#DejaVuSans-6e" transform="translate(188.818359 0)"/>
    </g>
    <!-- base-gnn-conv -->
    <g style="fill: #0f172a" transform="translate(385.931428 170.995632) scale(0.08 -0.08)">
     <defs>
      <path id="DejaVuSans-62" d="M 3116 1747 
Q 3116 2381 2855 2742 
Q 2594 3103 2138 3103 
Q 1681 3103 1420 2742 
Q 1159 2381 1159 1747 
Q 1159 1113 1420 752 
Q 1681 391 2138 391 
Q 2594 391 2855 752 
Q 3116 1113 3116 1747 
z
M 1159 2969 
Q 1341 3281 1617 3432 
Q 1894 3584 2278 3584 
Q 2916 3584 3314 3078 
Q 3713 2572 3713 1747 
Q 3713 922 3314 415 
Q 2916 -91 2278 -91 
Q 1894 -91 1617 61 
Q 1341 213 1159 525 
L 1159 0 
L 581 0 
L 581 4863 
L 1159 4863 
L 1159 2969 
z
" transform="scale(0.015625)"/>
      <path id="DejaVuSans-73" d="M 2834 3397 
L 2834 2853 
Q 2591 2978 2328 3040 
Q 2066 3103 1784 3103 
Q 1356 3103 1142 2972 
Q 928 2841 928 2578 
Q 928 2378 1081 2264 
Q 1234 2150 1697 2047 
L 1894 2003 
Q 2506 1872 2764 1633 
Q 3022 1394 3022 966 
Q 3022 478 2636 193 
Q 2250 -91 1575 -91 
Q 1294 -91 989 -36 
Q 684 19 347 128 
L 347 722 
Q 666 556 975 473 
Q 1284 391 1588 391 
Q 1994 391 2212 530 
Q 2431 669 2431 922 
Q 2431 1156 2273 1281 
Q 2116 1406 1581 1522 
L 1381 1569 
Q 847 1681 609 1914 
Q 372 2147 372 2553 
Q 372 3047 722 3315 
Q 1072 3584 1716 3584 
Q 2034 3584 2315 3537 
Q 2597 3491 2834 3397 
z
" transform="scale(0.015625)"/>
      <path id="DejaVuSans-67" d="M 2906 1791 
Q 2906 2416 2648 2759 
Q 2391 3103 1925 3103 
Q 1463 3103 1205 2759 
Q 947 2416 947 1791 
Q 947 1169 1205 825 
Q 1463 481 1925 481 
Q 2391 481 2648 825 
Q 2906 1169 2906 1791 
z
M 3481 434 
Q 3481 -459 3084 -895 
Q 2688 -1331 1869 -1331 
Q 1566 -1331 1297 -1286 
Q 1028 -1241 775 -1147 
L 775 -588 
Q 1028 -725 1275 -790 
Q 1522 -856 1778 -856 
Q 2344 -856 2625 -561 
Q 2906 -266 2906 331 
L 2906 616 
Q 2728 306 2450 153 
Q 2172 0 1784 0 
Q 1141 0 747 490 
Q 353 981 353 1791 
Q 353 2603 747 3093 
Q 1141 3584 1784 3584 
Q 2172 3584 2450 3431 
Q 2728 3278 2906 2969 
L 2906 3500 
L 3481 3500 
L 3481 434 
z
" transform="scale(0.015625)"/>
      <path id="DejaVuSans-76" d="M 191 3500 
L 800 3500 
L 1894 563 
L 2988 3500 
L 3597 3500 
L 2284 0 
L 1503 0 
L 191 3500 
z
" transform="scale(0.015625)"/>
     </defs>
     <use xlink:href="#DejaVuSans-62"/>
     <use xlink:href="#DejaVuSans-61" transform="translate(63.476562 0)"/>
     <use xlink:href="#DejaVuSans-73" transform="translate(124.755859 0)"/>
     <use xlink:href="#DejaVuSans-65" transform="translate(176.855469 0)"/>
     <use xlink:href="#DejaVuSans-2d" transform="translate(238.378906 0)"/>
     <use xlink:href="#DejaVuSans-67" transform="translate(274.462891 0)"/>
     <use xlink:href="#DejaVuSans-6e" transform="translate(337.939453 0)"/>
     <use xlink:href="#DejaVuSans-6e" transform="translate(401.318359 0)"/>
     <use xlink:href="#DejaVuSans-2d" transform="translate(464.697266 0)"/>
     <use xlink:href="#DejaVuSans-63" transform="translate(500.78125 0)"/>
     <use xlink:href="#DejaVuSans-6f" transform="translate(555.761719 0)"/>
     <use xlink:href="#DejaVuSans-6e" transform="translate(616.943359 0)"/>
     <use xlink:href="#DejaVuSans-76" transform="translate(680.322266 0)"/>
    </g>
   </g>
   <g id="text_18">
    <!-- 1min -->
    <g style="fill: #0f172a" transform="translate(302.909278 281.166288) scale(0.08 -0.08)">
     <defs>
      <path id="DejaVuSans-31" d="M 794 531 
L 1825 531 
L 1825 4091 
L 703 3866 
L 703 4441 
L 1819 4666 
L 2450 4666 
L 2450 531 
L 3481 531 
L 3481 0 
L 794 0 
L 794 531 
z
" transform="scale(0.015625)"/>
     </defs>
     <use xlink:href="#DejaVuSans-31"/>
     <use xlink:href="#DejaVuSans-6d" transform="translate(63.623047 0)"/>
     <use xlink:href="#DejaVuSans-69" transform="translate(161.035156 0)"/>
     <use xlink:href="#DejaVuSans-6e" transform="translate(188.818359 0)"/>
    </g>
    <!-- base-gnn-conv -->
    <g style="fill: #0f172a" transform="translate(302.909278 290.124538) scale(0.08 -0.08)">
     <use xlink:href="#DejaVuSans-62"/>
     <use xlink:href="#DejaVuSans-61" transform="translate(63.476562 0)"/>
     <use xlink:href="#DejaVuSans-73" transform="translate(124.755859 0)"/>
     <use xlink:href="#DejaVuSans-65" transform="translate(176.855469 0)"/>
     <use xlink:href="#DejaVuSans-2d" transform="translate(238.378906 0)"/>
     <use xlink:href="#DejaVuSans-67" transform="translate(274.462891 0)"/>
     <use xlink:href="#DejaVuSans-6e" transform="translate(337.939453 0)"/>
     <use xlink:href="#DejaVuSans-6e" transform="translate(401.318359 0)"/>
     <use xlink:href="#DejaVuSans-2d" transform="translate(464.697266 0)"/>
     <use xlink:href="#DejaVuSans-63" transform="translate(500.78125 0)"/>
     <use xlink:href="#DejaVuSans-6f" transform="translate(555.761719 0)"/>
     <use xlink:href="#DejaVuSans-6e" transform="translate(616.943359 0)"/>
     <use xlink:href="#DejaVuSans-76" transform="translate(680.322266 0)"/>
    </g>
   </g>
   <g id="text_19">
    <!-- 1sec -->
    <g style="fill: #0f172a" transform="translate(338.341388 202.332377) scale(0.08 -0.08)">
     <use xlink:href="#DejaVuSans-31"/>
     <use xlink:href="#DejaVuSans-73" transform="translate(63.623047 0)"/>
     <use xlink:href="#DejaVuSans-65" transform="translate(115.722656 0)"/>
     <use xlink:href="#DejaVuSans-63" transform="translate(177.246094 0)"/>
    </g>
    <!-- memory-gnn-conv -->
    <g style="fill: #0f172a" transform="translate(338.341388 211.290627) scale(0.08 -0.08)">
     <defs>
      <path id="DejaVuSans-79" d="M 2059 -325 
Q 1816 -950 1584 -1140 
Q 1353 -1331 966 -1331 
L 506 -1331 
L 506 -850 
L 844 -850 
Q 1081 -850 1212 -737 
Q 1344 -625 1503 -206 
L 1606 56 
L 191 3500 
L 800 3500 
L 1894 763 
L 2988 3500 
L 3597 3500 
L 2059 -325 
z
" transform="scale(0.015625)"/>
     </defs>
     <use xlink:href="#DejaVuSans-6d"/>
     <use xlink:href="#DejaVuSans-65" transform="translate(97.412109 0)"/>
     <use xlink:href="#DejaVuSans-6d" transform="translate(158.935547 0)"/>
     <use xlink:href="#DejaVuSans-6f" transform="translate(256.347656 0)"/>
     <use xlink:href="#DejaVuSans-72" transform="translate(317.529297 0)"/>
     <use xlink:href="#DejaVuSans-79" transform="translate(358.642578 0)"/>
     <use xlink:href="#DejaVuSans-2d" transform="translate(416.072266 0)"/>
     <use xlink:href="#DejaVuSans-67" transform="translate(452.15625 0)"/>
     <use xlink:href="#DejaVuSans-6e" transform="translate(515.632812 0)"/>
     <use xlink:href="#DejaVuSans-6e" transform="translate(579.011719 0)"/>
     <use xlink:href="#DejaVuSans-2d" transform="translate(642.390625 0)"/>
     <use xlink:href="#DejaVuSans-63" transform="translate(678.474609 0)"/>
     <use xlink:href="#DejaVuSans-6f" transform="translate(733.455078 0)"/>
     <use xlink:href="#DejaVuSans-6e" transform="translate(794.636719 0)"/>
     <use xlink:href="#DejaVuSans-76" transform="translate(858.015625 0)"/>
    </g>
   </g>
   <g id="text_20">
    <!-- 5min -->
    <g style="fill: #0f172a" transform="translate(368.396425 118.142193) scale(0.08 -0.08)">
     <use xlink:href="#DejaVuSans-35"/>
     <use xlink:href="#DejaVuSans-6d" transform="translate(63.623047 0)"/>
     <use xlink:href="#DejaVuSans-69" transform="translate(161.035156 0)"/>
     <use xlink:href="#DejaVuSans-6e" transform="translate(188.818359 0)"/>
    </g>
    <!-- multi-gnn-conv -->
    <g style="fill: #0f172a" transform="translate(368.396425 127.100443) scale(0.08 -0.08)">
     <use xlink:href="#DejaVuSans-6d"/>
     <use xlink:href="#DejaVuSans-75" transform="translate(97.412109 0)"/>
     <use xlink:href="#DejaVuSans-6c" transform="translate(160.791016 0)"/>
     <use xlink:href="#DejaVuSans-74" transform="translate(188.574219 0)"/>
     <use xlink:href="#DejaVuSans-69" transform="translate(227.783203 0)"/>
     <use xlink:href="#DejaVuSans-2d" transform="translate(255.566406 0)"/>
     <use xlink:href="#DejaVuSans-67" transform="translate(291.650391 0)"/>
     <use xlink:href="#DejaVuSans-6e" transform="translate(355.126953 0)"/>
     <use xlink:href="#DejaVuSans-6e" transform="translate(418.505859 0)"/>
     <use xlink:href="#DejaVuSans-2d" transform="translate(481.884766 0)"/>
     <use xlink:href="#DejaVuSans-63" transform="translate(517.96875 0)"/>
     <use xlink:href="#DejaVuSans-6f" transform="translate(572.949219 0)"/>
     <use xlink:href="#DejaVuSans-6e" transform="translate(634.130859 0)"/>
     <use xlink:href="#DejaVuSans-76" transform="translate(697.509766 0)"/>
    </g>
   </g>
   <g id="text_21">
    <!-- +0.020 -->
    <g style="fill: #334155" transform="translate(334.123676 187.575832) scale(0.075 -0.075)">
     <defs>
      <path id="DejaVuSans-2b" d="M 2944 4013 
L 2944 2272 
L 4684 2272 
L 4684 1741 
L 2944 1741 
L 2944 0 
L 2419 0 
L 2419 1741 
L 678 1741 
L 678 2272 
L 2419 2272 
L 2419 4013 
L 2944 4013 
z
" transform="scale(0.015625)"/>
      <path id="DejaVuSans-32" d="M 1228 531 
L 3431 531 
L 3431 0 
L 469 0 
L 469 531 
Q 828 903 1448 1529 
Q 2069 2156 2228 2338 
Q 2531 2678 2651 2914 
Q 2772 3150 2772 3378 
Q 2772 3750 2511 3984 
Q 2250 4219 1831 4219 
Q 1534 4219 1204 4116 
Q 875 4013 500 3803 
L 500 4441 
Q 881 4594 1212 4672 
Q 1544 4750 1819 4750 
Q 2544 4750 2975 4387 
Q 3406 4025 3406 3419 
Q 3406 3131 3298 2873 
Q 3191 2616 2906 2266 
Q 2828 2175 2409 1742 
Q 1991 1309 1228 531 
z
" transform="scale(0.015625)"/>
     </defs>
     <use xlink:href="#DejaVuSans-2b"/>
     <use xlink:href="#DejaVuSans-30" transform="translate(83.789062 0)"/>
     <use xlink:href="#DejaVuSans-2e" transform="translate(147.412109 0)"/>
     <use xlink:href="#DejaVuSans-30" transform="translate(179.199219 0)"/>
     <use xlink:href="#DejaVuSans-32" transform="translate(242.822266 0)"/>
     <use xlink:href="#DejaVuSans-30" transform="translate(306.445312 0)"/>
    </g>
   </g>
   <g id="text_22">
    <!-- +0.011 -->
    <g style="fill: #334155" transform="translate(359.740536 148.181244) scale(0.075 -0.075)">
     <use xlink:href="#DejaVuSans-2b"/>
     <use xlink:href="#DejaVuSans-30" transform="translate(83.789062 0)"/>
     <use xlink:href="#DejaVuSans-2e" transform="translate(147.412109 0)"/>
     <use xlink:href="#DejaVuSans-30" transform="translate(179.199219 0)"/>
     <use xlink:href="#DejaVuSans-31" transform="translate(242.822266 0)"/>
     <use xlink:href="#DejaVuSans-31" transform="translate(306.445312 0)"/>
    </g>
   </g>
   <g id="text_23">
    <!-- +0.020 -->
    <g style="fill: #334155" transform="translate(271.376525 297.517586) scale(0.075 -0.075)">
     <use xlink:href="#DejaVuSans-2b"/>
     <use xlink:href="#DejaVuSans-30" transform="translate(83.789062 0)"/>
     <use xlink:href="#DejaVuSans-2e" transform="translate(147.412109 0)"/>
     <use xlink:href="#DejaVuSans-30" transform="translate(179.199219 0)"/>
     <use xlink:href="#DejaVuSans-32" transform="translate(242.822266 0)"/>
     <use xlink:href="#DejaVuSans-30" transform="translate(306.445312 0)"/>
    </g>
   </g>
   <g id="text_24">
    <!-- -0.012 -->
    <g style="fill: #334155" transform="translate(256.443388 276.497303) scale(0.075 -0.075)">
     <use xlink:href="#DejaVuSans-2d"/>
     <use xlink:href="#DejaVuSans-30" transform="translate(36.083984 0)"/>
     <use xlink:href="#DejaVuSans-2e" transform="translate(99.707031 0)"/>
     <use xlink:href="#DejaVuSans-30" transform="translate(131.494141 0)"/>
     <use xlink:href="#DejaVuSans-31" transform="translate(195.117188 0)"/>
     <use xlink:href="#DejaVuSans-32" transform="translate(258.740234 0)"/>
    </g>
   </g>
   <g id="text_25">
    <!-- -1.163 -->
    <g style="fill: #334155" transform="translate(81.653964 221.724002) scale(0.075 -0.075)">
     <defs>
      <path id="DejaVuSans-33" d="M 2597 2516 
Q 3050 2419 3304 2112 
Q 3559 1806 3559 1356 
Q 3559 666 3084 287 
Q 2609 -91 1734 -91 
Q 1441 -91 1130 -33 
Q 819 25 488 141 
L 488 750 
Q 750 597 1062 519 
Q 1375 441 1716 441 
Q 2309 441 2620 675 
Q 2931 909 2931 1356 
Q 2931 1769 2642 2001 
Q 2353 2234 1838 2234 
L 1294 2234 
L 1294 2753 
L 1863 2753 
Q 2328 2753 2575 2939 
Q 2822 3125 2822 3475 
Q 2822 3834 2567 4026 
Q 2313 4219 1838 4219 
Q 1578 4219 1281 4162 
Q 984 4106 628 3988 
L 628 4550 
Q 988 4650 1302 4700 
Q 1616 4750 1894 4750 
Q 2613 4750 3031 4423 
Q 3450 4097 3450 3541 
Q 3450 3153 3228 2886 
Q 3006 2619 2597 2516 
z
" transform="scale(0.015625)"/>
     </defs>
     <use xlink:href="#DejaVuSans-2d"/>
     <use xlink:href="#DejaVuSans-31" transform="translate(36.083984 0)"/>
     <use xlink:href="#DejaVuSans-2e" transform="translate(99.707031 0)"/>
     <use xlink:href="#DejaVuSans-31" transform="translate(131.494141 0)"/>
     <use xlink:href="#DejaVuSans-36" transform="translate(195.117188 0)"/>
     <use xlink:href="#DejaVuSans-33" transform="translate(258.740234 0)"/>
    </g>
   </g>
   <g id="text_26">
    <!-- -0.955 -->
    <g style="fill: #334155" transform="translate(517.030168 194.623066) scale(0.075 -0.075)">
     <defs>
      <path id="DejaVuSans-39" d="M 703 97 
L 703 672 
Q 941 559 1184 500 
Q 1428 441 1663 441 
Q 2288 441 2617 861 
Q 2947 1281 2994 2138 
Q 2813 1869 2534 1725 
Q 2256 1581 1919 1581 
Q 1219 1581 811 2004 
Q 403 2428 403 3163 
Q 403 3881 828 4315 
Q 1253 4750 1959 4750 
Q 2769 4750 3195 4129 
Q 3622 3509 3622 2328 
Q 3622 1225 3098 567 
Q 2575 -91 1691 -91 
Q 1453 -91 1209 -44 
Q 966 3 703 97 
z
M 1959 2075 
Q 2384 2075 2632 2365 
Q 2881 2656 2881 3163 
Q 2881 3666 2632 3958 
Q 2384 4250 1959 4250 
Q 1534 4250 1286 3958 
Q 1038 3666 1038 3163 
Q 1038 2656 1286 2365 
Q 1534 2075 1959 2075 
z
" transform="scale(0.015625)"/>
     </defs>
     <use xlink:href="#DejaVuSans-2d"/>
     <use xlink:href="#DejaVuSans-30" transform="translate(36.083984 0)"/>
     <use xlink:href="#DejaVuSans-2e" transform="translate(99.707031 0)"/>
     <use xlink:href="#DejaVuSans-39" transform="translate(131.494141 0)"/>
     <use xlink:href="#DejaVuSans-35" transform="translate(195.117188 0)"/>
     <use xlink:href="#DejaVuSans-35" transform="translate(258.740234 0)"/>
    </g>
   </g>
   <g id="text_27">
    <!-- +0.002 -->
    <g style="fill: #334155" transform="translate(300.10402 188.10469) scale(0.075 -0.075)">
     <use xlink:href="#DejaVuSans-2b"/>
     <use xlink:href="#DejaVuSans-30" transform="translate(83.789062 0)"/>
     <use xlink:href="#DejaVuSans-2e" transform="translate(147.412109 0)"/>
     <use xlink:href="#DejaVuSans-30" transform="translate(179.199219 0)"/>
     <use xlink:href="#DejaVuSans-30" transform="translate(242.822266 0)"/>
     <use xlink:href="#DejaVuSans-32" transform="translate(306.445312 0)"/>
    </g>
   </g>
   <g id="text_28">
    <!-- +0.041 -->
    <g style="fill: #334155" transform="translate(358.690187 59.862009) scale(0.075 -0.075)">
     <use xlink:href="#DejaVuSans-2b"/>
     <use xlink:href="#DejaVuSans-30" transform="translate(83.789062 0)"/>
     <use xlink:href="#DejaVuSans-2e" transform="translate(147.412109 0)"/>
     <use xlink:href="#DejaVuSans-30" transform="translate(179.199219 0)"/>
     <use xlink:href="#DejaVuSans-34" transform="translate(242.822266 0)"/>
     <use xlink:href="#DejaVuSans-31" transform="translate(306.445312 0)"/>
    </g>
   </g>
   <g id="text_29">
    <!-- Both markers use final-holdout/test metrics. Arrows point from deployment-primary `last_CV` to diagnostic `final_refit`; fill color reports post-cost net PnL. -->
    <g style="fill: #475569" transform="translate(48.595313 376.454445) scale(0.08 -0.08)">
     <defs>
      <path id="DejaVuSans-42" d="M 1259 2228 
L 1259 519 
L 2272 519 
Q 2781 519 3026 730 
Q 3272 941 3272 1375 
Q 3272 1813 3026 2020 
Q 2781 2228 2272 2228 
L 1259 2228 
z
M 1259 4147 
L 1259 2741 
L 2194 2741 
Q 2656 2741 2882 2914 
Q 3109 3088 3109 3444 
Q 3109 3797 2882 3972 
Q 2656 4147 2194 4147 
L 1259 4147 
z
M 628 4666 
L 2241 4666 
Q 2963 4666 3353 4366 
Q 3744 4066 3744 3513 
Q 3744 3084 3544 2831 
Q 3344 2578 2956 2516 
Q 3422 2416 3680 2098 
Q 3938 1781 3938 1306 
Q 3938 681 3513 340 
Q 3088 0 2303 0 
L 628 0 
L 628 4666 
z
" transform="scale(0.015625)"/>
      <path id="DejaVuSans-6b" d="M 581 4863 
L 1159 4863 
L 1159 1991 
L 2875 3500 
L 3609 3500 
L 1753 1863 
L 3688 0 
L 2938 0 
L 1159 1709 
L 1159 0 
L 581 0 
L 581 4863 
z
" transform="scale(0.015625)"/>
      <path id="DejaVuSans-66" d="M 2375 4863 
L 2375 4384 
L 1825 4384 
Q 1516 4384 1395 4259 
Q 1275 4134 1275 3809 
L 1275 3500 
L 2222 3500 
L 2222 3053 
L 1275 3053 
L 1275 0 
L 697 0 
L 697 3053 
L 147 3053 
L 147 3500 
L 697 3500 
L 697 3744 
Q 697 4328 969 4595 
Q 1241 4863 1831 4863 
L 2375 4863 
z
" transform="scale(0.015625)"/>
      <path id="DejaVuSans-2f" d="M 1625 4666 
L 2156 4666 
L 531 -594 
L 0 -594 
L 1625 4666 
z
" transform="scale(0.015625)"/>
      <path id="DejaVuSans-77" d="M 269 3500 
L 844 3500 
L 1563 769 
L 2278 3500 
L 2956 3500 
L 3675 769 
L 4391 3500 
L 4966 3500 
L 4050 0 
L 3372 0 
L 2619 2869 
L 1863 0 
L 1184 0 
L 269 3500 
z
" transform="scale(0.015625)"/>
      <path id="DejaVuSans-70" d="M 1159 525 
L 1159 -1331 
L 581 -1331 
L 581 3500 
L 1159 3500 
L 1159 2969 
Q 1341 3281 1617 3432 
Q 1894 3584 2278 3584 
Q 2916 3584 3314 3078 
Q 3713 2572 3713 1747 
Q 3713 922 3314 415 
Q 2916 -91 2278 -91 
Q 1894 -91 1617 61 
Q 1341 213 1159 525 
z
M 3116 1747 
Q 3116 2381 2855 2742 
Q 2594 3103 2138 3103 
Q 1681 3103 1420 2742 
Q 1159 2381 1159 1747 
Q 1159 1113 1420 752 
Q 1681 391 2138 391 
Q 2594 391 2855 752 
Q 3116 1113 3116 1747 
z
" transform="scale(0.015625)"/>
      <path id="DejaVuSans-56" d="M 1831 0 
L 50 4666 
L 709 4666 
L 2188 738 
L 3669 4666 
L 4325 4666 
L 2547 0 
L 1831 0 
z
" transform="scale(0.015625)"/>
      <path id="DejaVuSans-3b" d="M 750 3309 
L 1409 3309 
L 1409 2516 
L 750 2516 
L 750 3309 
z
M 750 794 
L 1409 794 
L 1409 256 
L 897 -744 
L 494 -744 
L 750 256 
L 750 794 
z
" transform="scale(0.015625)"/>
      <path id="DejaVuSans-50" d="M 1259 4147 
L 1259 2394 
L 2053 2394 
Q 2494 2394 2734 2622 
Q 2975 2850 2975 3272 
Q 2975 3691 2734 3919 
Q 2494 4147 2053 4147 
L 1259 4147 
z
M 628 4666 
L 2053 4666 
Q 2838 4666 3239 4311 
Q 3641 3956 3641 3272 
Q 3641 2581 3239 2228 
Q 2838 1875 2053 1875 
L 1259 1875 
L 1259 0 
L 628 0 
L 628 4666 
z
" transform="scale(0.015625)"/>
      <path id="DejaVuSans-4c" d="M 628 4666 
L 1259 4666 
L 1259 531 
L 3531 531 
L 3531 0 
L 628 0 
L 628 4666 
z
" transform="scale(0.015625)"/>
     </defs>
     <use xlink:href="#DejaVuSans-42"/>
     <use xlink:href="#DejaVuSans-6f" transform="translate(68.603516 0)"/>
     <use xlink:href="#DejaVuSans-74" transform="translate(129.785156 0)"/>
     <use xlink:href="#DejaVuSans-68" transform="translate(168.994141 0)"/>
     <use xlink:href="#DejaVuSans-20" transform="translate(232.373047 0)"/>
     <use xlink:href="#DejaVuSans-6d" transform="translate(264.160156 0)"/>
     <use xlink:href="#DejaVuSans-61" transform="translate(361.572266 0)"/>
     <use xlink:href="#DejaVuSans-72" transform="translate(422.851562 0)"/>
     <use xlink:href="#DejaVuSans-6b" transform="translate(463.964844 0)"/>
     <use xlink:href="#DejaVuSans-65" transform="translate(518.25 0)"/>
     <use xlink:href="#DejaVuSans-72" transform="translate(579.773438 0)"/>
     <use xlink:href="#DejaVuSans-73" transform="translate(620.886719 0)"/>
     <use xlink:href="#DejaVuSans-20" transform="translate(672.986328 0)"/>
     <use xlink:href="#DejaVuSans-75" transform="translate(704.773438 0)"/>
     <use xlink:href="#DejaVuSans-73" transform="translate(768.152344 0)"/>
     <use xlink:href="#DejaVuSans-65" transform="translate(820.251953 0)"/>
     <use xlink:href="#DejaVuSans-20" transform="translate(881.775391 0)"/>
     <use xlink:href="#DejaVuSans-66" transform="translate(913.5625 0)"/>
     <use xlink:href="#DejaVuSans-69" transform="translate(948.767578 0)"/>
     <use xlink:href="#DejaVuSans-6e" transform="translate(976.550781 0)"/>
     <use xlink:href="#DejaVuSans-61" transform="translate(1039.929688 0)"/>
     <use xlink:href="#DejaVuSans-6c" transform="translate(1101.208984 0)"/>
     <use xlink:href="#DejaVuSans-2d" transform="translate(1128.992188 0)"/>
     <use xlink:href="#DejaVuSans-68" transform="translate(1165.076172 0)"/>
     <use xlink:href="#DejaVuSans-6f" transform="translate(1228.455078 0)"/>
     <use xlink:href="#DejaVuSans-6c" transform="translate(1289.636719 0)"/>
     <use xlink:href="#DejaVuSans-64" transform="translate(1317.419922 0)"/>
     <use xlink:href="#DejaVuSans-6f" transform="translate(1380.896484 0)"/>
     <use xlink:href="#DejaVuSans-75" transform="translate(1442.078125 0)"/>
     <use xlink:href="#DejaVuSans-74" transform="translate(1505.457031 0)"/>
     <use xlink:href="#DejaVuSans-2f" transform="translate(1544.666016 0)"/>
     <use xlink:href="#DejaVuSans-74" transform="translate(1578.357422 0)"/>
     <use xlink:href="#DejaVuSans-65" transform="translate(1617.566406 0)"/>
     <use xlink:href="#DejaVuSans-73" transform="translate(1679.089844 0)"/>
     <use xlink:href="#DejaVuSans-74" transform="translate(1731.189453 0)"/>
     <use xlink:href="#DejaVuSans-20" transform="translate(1770.398438 0)"/>
     <use xlink:href="#DejaVuSans-6d" transform="translate(1802.185547 0)"/>
     <use xlink:href="#DejaVuSans-65" transform="translate(1899.597656 0)"/>
     <use xlink:href="#DejaVuSans-74" transform="translate(1961.121094 0)"/>
     <use xlink:href="#DejaVuSans-72" transform="translate(2000.330078 0)"/>
     <use xlink:href="#DejaVuSans-69" transform="translate(2041.443359 0)"/>
     <use xlink:href="#DejaVuSans-63" transform="translate(2069.226562 0)"/>
     <use xlink:href="#DejaVuSans-73" transform="translate(2124.207031 0)"/>
     <use xlink:href="#DejaVuSans-2e" transform="translate(2176.306641 0)"/>
     <use xlink:href="#DejaVuSans-20" transform="translate(2208.09375 0)"/>
     <use xlink:href="#DejaVuSans-41" transform="translate(2239.880859 0)"/>
     <use xlink:href="#DejaVuSans-72" transform="translate(2308.289062 0)"/>
     <use xlink:href="#DejaVuSans-72" transform="translate(2347.652344 0)"/>
     <use xlink:href="#DejaVuSans-6f" transform="translate(2386.515625 0)"/>
     <use xlink:href="#DejaVuSans-77" transform="translate(2447.697266 0)"/>
     <use xlink:href="#DejaVuSans-73" transform="translate(2529.484375 0)"/>
     <use xlink:href="#DejaVuSans-20" transform="translate(2581.583984 0)"/>
     <use xlink:href="#DejaVuSans-70" transform="translate(2613.371094 0)"/>
     <use xlink:href="#DejaVuSans-6f" transform="translate(2676.847656 0)"/>
     <use xlink:href="#DejaVuSans-69" transform="translate(2738.029297 0)"/>
     <use xlink:href="#DejaVuSans-6e" transform="translate(2765.8125 0)"/>
     <use xlink:href="#DejaVuSans-74" transform="translate(2829.191406 0)"/>
     <use xlink:href="#DejaVuSans-20" transform="translate(2868.400391 0)"/>
     <use xlink:href="#DejaVuSans-66" transform="translate(2900.1875 0)"/>
     <use xlink:href="#DejaVuSans-72" transform="translate(2935.392578 0)"/>
     <use xlink:href="#DejaVuSans-6f" transform="translate(2974.255859 0)"/>
     <use xlink:href="#DejaVuSans-6d" transform="translate(3035.4375 0)"/>
     <use xlink:href="#DejaVuSans-20" transform="translate(3132.849609 0)"/>
     <use xlink:href="#DejaVuSans-64" transform="translate(3164.636719 0)"/>
     <use xlink:href="#DejaVuSans-65" transform="translate(3228.113281 0)"/>
     <use xlink:href="#DejaVuSans-70" transform="translate(3289.636719 0)"/>
     <use xlink:href="#DejaVuSans-6c" transform="translate(3353.113281 0)"/>
     <use xlink:href="#DejaVuSans-6f" transform="translate(3380.896484 0)"/>
     <use xlink:href="#DejaVuSans-79" transform="translate(3442.078125 0)"/>
     <use xlink:href="#DejaVuSans-6d" transform="translate(3501.257812 0)"/>
     <use xlink:href="#DejaVuSans-65" transform="translate(3598.669922 0)"/>
     <use xlink:href="#DejaVuSans-6e" transform="translate(3660.193359 0)"/>
     <use xlink:href="#DejaVuSans-74" transform="translate(3723.572266 0)"/>
     <use xlink:href="#DejaVuSans-2d" transform="translate(3762.78125 0)"/>
     <use xlink:href="#DejaVuSans-70" transform="translate(3798.865234 0)"/>
     <use xlink:href="#DejaVuSans-72" transform="translate(3862.341797 0)"/>
     <use xlink:href="#DejaVuSans-69" transform="translate(3903.455078 0)"/>
     <use xlink:href="#DejaVuSans-6d" transform="translate(3931.238281 0)"/>
     <use xlink:href="#DejaVuSans-61" transform="translate(4028.650391 0)"/>
     <use xlink:href="#DejaVuSans-72" transform="translate(4089.929688 0)"/>
     <use xlink:href="#DejaVuSans-79" transform="translate(4131.042969 0)"/>
     <use xlink:href="#DejaVuSans-20" transform="translate(4190.222656 0)"/>
     <use xlink:href="#DejaVuSans-60" transform="translate(4222.009766 0)"/>
     <use xlink:href="#DejaVuSans-6c" transform="translate(4272.009766 0)"/>
     <use xlink:href="#DejaVuSans-61" transform="translate(4299.792969 0)"/>
     <use xlink:href="#DejaVuSans-73" transform="translate(4361.072266 0)"/>
     <use xlink:href="#DejaVuSans-74" transform="translate(4413.171875 0)"/>
     <use xlink:href="#DejaVuSans-5f" transform="translate(4452.380859 0)"/>
     <use xlink:href="#DejaVuSans-43" transform="translate(4502.380859 0)"/>
     <use xlink:href="#DejaVuSans-56" transform="translate(4572.205078 0)"/>
     <use xlink:href="#DejaVuSans-60" transform="translate(4640.613281 0)"/>
     <use xlink:href="#DejaVuSans-20" transform="translate(4690.613281 0)"/>
     <use xlink:href="#DejaVuSans-74" transform="translate(4722.400391 0)"/>
     <use xlink:href="#DejaVuSans-6f" transform="translate(4761.609375 0)"/>
     <use xlink:href="#DejaVuSans-20" transform="translate(4822.791016 0)"/>
     <use xlink:href="#DejaVuSans-64" transform="translate(4854.578125 0)"/>
     <use xlink:href="#DejaVuSans-69" transform="translate(4918.054688 0)"/>
     <use xlink:href="#DejaVuSans-61" transform="translate(4945.837891 0)"/>
     <use xlink:href="#DejaVuSans-67" transform="translate(5007.117188 0)"/>
     <use xlink:href="#DejaVuSans-6e" transform="translate(5070.59375 0)"/>
     <use xlink:href="#DejaVuSans-6f" transform="translate(5133.972656 0)"/>
     <use xlink:href="#DejaVuSans-73" transform="translate(5195.154297 0)"/>
     <use xlink:href="#DejaVuSans-74" transform="translate(5247.253906 0)"/>
     <use xlink:href="#DejaVuSans-69" transform="translate(5286.462891 0)"/>
     <use xlink:href="#DejaVuSans-63" transform="translate(5314.246094 0)"/>
     <use xlink:href="#DejaVuSans-20" transform="translate(5369.226562 0)"/>
     <use xlink:href="#DejaVuSans-60" transform="translate(5401.013672 0)"/>
     <use xlink:href="#DejaVuSans-66" transform="translate(5451.013672 0)"/>
     <use xlink:href="#DejaVuSans-69" transform="translate(5486.21875 0)"/>
     <use xlink:href="#DejaVuSans-6e" transform="translate(5514.001953 0)"/>
     <use xlink:href="#DejaVuSans-61" transform="translate(5577.380859 0)"/>
     <use xlink:href="#DejaVuSans-6c" transform="translate(5638.660156 0)"/>
     <use xlink:href="#DejaVuSans-5f" transform="translate(5666.443359 0)"/>
     <use xlink:href="#DejaVuSans-72" transform="translate(5716.443359 0)"/>
     <use xlink:href="#DejaVuSans-65" transform="translate(5755.306641 0)"/>
     <use xlink:href="#DejaVuSans-66" transform="translate(5816.830078 0)"/>
     <use xlink:href="#DejaVuSans-69" transform="translate(5852.035156 0)"/>
     <use xlink:href="#DejaVuSans-74" transform="translate(5879.818359 0)"/>
     <use xlink:href="#DejaVuSans-60" transform="translate(5919.027344 0)"/>
     <use xlink:href="#DejaVuSans-3b" transform="translate(5969.027344 0)"/>
     <use xlink:href="#DejaVuSans-20" transform="translate(6002.71875 0)"/>
     <use xlink:href="#DejaVuSans-66" transform="translate(6034.505859 0)"/>
     <use xlink:href="#DejaVuSans-69" transform="translate(6069.710938 0)"/>
     <use xlink:href="#DejaVuSans-6c" transform="translate(6097.494141 0)"/>
     <use xlink:href="#DejaVuSans-6c" transform="translate(6125.277344 0)"/>
     <use xlink:href="#DejaVuSans-20" transform="translate(6153.060547 0)"/>
     <use xlink:href="#DejaVuSans-63" transform="translate(6184.847656 0)"/>
     <use xlink:href="#DejaVuSans-6f" transform="translate(6239.828125 0)"/>
     <use xlink:href="#DejaVuSans-6c" transform="translate(6301.009766 0)"/>
     <use xlink:href="#DejaVuSans-6f" transform="translate(6328.792969 0)"/>
     <use xlink:href="#DejaVuSans-72" transform="translate(6389.974609 0)"/>
     <use xlink:href="#DejaVuSans-20" transform="translate(6431.087891 0)"/>
     <use xlink:href="#DejaVuSans-72" transform="translate(6462.875 0)"/>
     <use xlink:href="#DejaVuSans-65" transform="translate(6501.738281 0)"/>
     <use xlink:href="#DejaVuSans-70" transform="translate(6563.261719 0)"/>
     <use xlink:href="#DejaVuSans-6f" transform="translate(6626.738281 0)"/>
     <use xlink:href="#DejaVuSans-72" transform="translate(6687.919922 0)"/>
     <use xlink:href="#DejaVuSans-74" transform="translate(6729.033203 0)"/>
     <use xlink:href="#DejaVuSans-73" transform="translate(6768.242188 0)"/>
     <use xlink:href="#DejaVuSans-20" transform="translate(6820.341797 0)"/>
     <use xlink:href="#DejaVuSans-70" transform="translate(6852.128906 0)"/>
     <use xlink:href="#DejaVuSans-6f" transform="translate(6915.605469 0)"/>
     <use xlink:href="#DejaVuSans-73" transform="translate(6976.787109 0)"/>
     <use xlink:href="#DejaVuSans-74" transform="translate(7028.886719 0)"/>
     <use xlink:href="#DejaVuSans-2d" transform="translate(7068.095703 0)"/>
     <use xlink:href="#DejaVuSans-63" transform="translate(7104.179688 0)"/>
     <use xlink:href="#DejaVuSans-6f" transform="translate(7159.160156 0)"/>
     <use xlink:href="#DejaVuSans-73" transform="translate(7220.341797 0)"/>
     <use xlink:href="#DejaVuSans-74" transform="translate(7272.441406 0)"/>
     <use xlink:href="#DejaVuSans-20" transform="translate(7311.650391 0)"/>
     <use xlink:href="#DejaVuSans-6e" transform="translate(7343.4375 0)"/>
     <use xlink:href="#DejaVuSans-65" transform="translate(7406.816406 0)"/>
     <use xlink:href="#DejaVuSans-74" transform="translate(7468.339844 0)"/>
     <use xlink:href="#DejaVuSans-20" transform="translate(7507.548828 0)"/>
     <use xlink:href="#DejaVuSans-50" transform="translate(7539.335938 0)"/>
     <use xlink:href="#DejaVuSans-6e" transform="translate(7597.888672 0)"/>
     <use xlink:href="#DejaVuSans-4c" transform="translate(7661.267578 0)"/>
     <use xlink:href="#DejaVuSans-2e" transform="translate(7716.980469 0)"/>
    </g>
   </g>
   <g id="text_30">
    <!-- Figure 5.6 — Final-holdout diagnostic transition from `last_CV` to `final_refit` -->
    <g transform="translate(85.003125 16.798125) scale(0.12 -0.12)">
     <defs>
      <path id="DejaVuSans-2014" d="M 313 1978 
L 6088 1978 
L 6088 1528 
L 313 1528 
L 313 1978 
z
" transform="scale(0.015625)"/>
     </defs>
     <use xlink:href="#DejaVuSans-46"/>
     <use xlink:href="#DejaVuSans-69" transform="translate(50.269531 0)"/>
     <use xlink:href="#DejaVuSans-67" transform="translate(78.052734 0)"/>
     <use xlink:href="#DejaVuSans-75" transform="translate(141.529297 0)"/>
     <use xlink:href="#DejaVuSans-72" transform="translate(204.908203 0)"/>
     <use xlink:href="#DejaVuSans-65" transform="translate(243.771484 0)"/>
     <use xlink:href="#DejaVuSans-20" transform="translate(305.294922 0)"/>
     <use xlink:href="#DejaVuSans-35" transform="translate(337.082031 0)"/>
     <use xlink:href="#DejaVuSans-2e" transform="translate(400.705078 0)"/>
     <use xlink:href="#DejaVuSans-36" transform="translate(432.492188 0)"/>
     <use xlink:href="#DejaVuSans-20" transform="translate(496.115234 0)"/>
     <use xlink:href="#DejaVuSans-2014" transform="translate(527.902344 0)"/>
     <use xlink:href="#DejaVuSans-20" transform="translate(627.902344 0)"/>
     <use xlink:href="#DejaVuSans-46" transform="translate(659.689453 0)"/>
     <use xlink:href="#DejaVuSans-69" transform="translate(709.958984 0)"/>
     <use xlink:href="#DejaVuSans-6e" transform="translate(737.742188 0)"/>
     <use xlink:href="#DejaVuSans-61" transform="translate(801.121094 0)"/>
     <use xlink:href="#DejaVuSans-6c" transform="translate(862.400391 0)"/>
     <use xlink:href="#DejaVuSans-2d" transform="translate(890.183594 0)"/>
     <use xlink:href="#DejaVuSans-68" transform="translate(926.267578 0)"/>
     <use xlink:href="#DejaVuSans-6f" transform="translate(989.646484 0)"/>
     <use xlink:href="#DejaVuSans-6c" transform="translate(1050.828125 0)"/>
     <use xlink:href="#DejaVuSans-64" transform="translate(1078.611328 0)"/>
     <use xlink:href="#DejaVuSans-6f" transform="translate(1142.087891 0)"/>
     <use xlink:href="#DejaVuSans-75" transform="translate(1203.269531 0)"/>
     <use xlink:href="#DejaVuSans-74" transform="translate(1266.648438 0)"/>
     <use xlink:href="#DejaVuSans-20" transform="translate(1305.857422 0)"/>
     <use xlink:href="#DejaVuSans-64" transform="translate(1337.644531 0)"/>
     <use xlink:href="#DejaVuSans-69" transform="translate(1401.121094 0)"/>
     <use xlink:href="#DejaVuSans-61" transform="translate(1428.904297 0)"/>
     <use xlink:href="#DejaVuSans-67" transform="translate(1490.183594 0)"/>
     <use xlink:href="#DejaVuSans-6e" transform="translate(1553.660156 0)"/>
     <use xlink:href="#DejaVuSans-6f" transform="translate(1617.039062 0)"/>
     <use xlink:href="#DejaVuSans-73" transform="translate(1678.220703 0)"/>
     <use xlink:href="#DejaVuSans-74" transform="translate(1730.320312 0)"/>
     <use xlink:href="#DejaVuSans-69" transform="translate(1769.529297 0)"/>
     <use xlink:href="#DejaVuSans-63" transform="translate(1797.3125 0)"/>
     <use xlink:href="#DejaVuSans-20" transform="translate(1852.292969 0)"/>
     <use xlink:href="#DejaVuSans-74" transform="translate(1884.080078 0)"/>
     <use xlink:href="#DejaVuSans-72" transform="translate(1923.289062 0)"/>
     <use xlink:href="#DejaVuSans-61" transform="translate(1964.402344 0)"/>
     <use xlink:href="#DejaVuSans-6e" transform="translate(2025.681641 0)"/>
     <use xlink:href="#DejaVuSans-73" transform="translate(2089.060547 0)"/>
     <use xlink:href="#DejaVuSans-69" transform="translate(2141.160156 0)"/>
     <use xlink:href="#DejaVuSans-74" transform="translate(2168.943359 0)"/>
     <use xlink:href="#DejaVuSans-69" transform="translate(2208.152344 0)"/>
     <use xlink:href="#DejaVuSans-6f" transform="translate(2235.935547 0)"/>
     <use xlink:href="#DejaVuSans-6e" transform="translate(2297.117188 0)"/>
     <use xlink:href="#DejaVuSans-20" transform="translate(2360.496094 0)"/>
     <use xlink:href="#DejaVuSans-66" transform="translate(2392.283203 0)"/>
     <use xlink:href="#DejaVuSans-72" transform="translate(2427.488281 0)"/>
     <use xlink:href="#DejaVuSans-6f" transform="translate(2466.351562 0)"/>
     <use xlink:href="#DejaVuSans-6d" transform="translate(2527.533203 0)"/>
     <use xlink:href="#DejaVuSans-20" transform="translate(2624.945312 0)"/>
     <use xlink:href="#DejaVuSans-60" transform="translate(2656.732422 0)"/>
     <use xlink:href="#DejaVuSans-6c" transform="translate(2706.732422 0)"/>
     <use xlink:href="#DejaVuSans-61" transform="translate(2734.515625 0)"/>
     <use xlink:href="#DejaVuSans-73" transform="translate(2795.794922 0)"/>
     <use xlink:href="#DejaVuSans-74" transform="translate(2847.894531 0)"/>
     <use xlink:href="#DejaVuSans-5f" transform="translate(2887.103516 0)"/>
     <use xlink:href="#DejaVuSans-43" transform="translate(2937.103516 0)"/>
     <use xlink:href="#DejaVuSans-56" transform="translate(3006.927734 0)"/>
     <use xlink:href="#DejaVuSans-60" transform="translate(3075.335938 0)"/>
     <use xlink:href="#DejaVuSans-20" transform="translate(3125.335938 0)"/>
     <use xlink:href="#DejaVuSans-74" transform="translate(3157.123047 0)"/>
     <use xlink:href="#DejaVuSans-6f" transform="translate(3196.332031 0)"/>
     <use xlink:href="#DejaVuSans-20" transform="translate(3257.513672 0)"/>
     <use xlink:href="#DejaVuSans-60" transform="translate(3289.300781 0)"/>
     <use xlink:href="#DejaVuSans-66" transform="translate(3339.300781 0)"/>
     <use xlink:href="#DejaVuSans-69" transform="translate(3374.505859 0)"/>
     <use xlink:href="#DejaVuSans-6e" transform="translate(3402.289062 0)"/>
     <use xlink:href="#DejaVuSans-61" transform="translate(3465.667969 0)"/>
     <use xlink:href="#DejaVuSans-6c" transform="translate(3526.947266 0)"/>
     <use xlink:href="#DejaVuSans-5f" transform="translate(3554.730469 0)"/>
     <use xlink:href="#DejaVuSans-72" transform="translate(3604.730469 0)"/>
     <use xlink:href="#DejaVuSans-65" transform="translate(3643.59375 0)"/>
     <use xlink:href="#DejaVuSans-66" transform="translate(3705.117188 0)"/>
     <use xlink:href="#DejaVuSans-69" transform="translate(3740.322266 0)"/>
     <use xlink:href="#DejaVuSans-74" transform="translate(3768.105469 0)"/>
     <use xlink:href="#DejaVuSans-60" transform="translate(3807.314453 0)"/>
    </g>
   </g>
   <g id="PathCollection_1">
    <defs>
     <path id="me4aef10333" d="M 0 5.123475 
C 1.358762 5.123475 2.662055 4.583634 3.622844 3.622844 
C 4.583634 2.662055 5.123475 1.358762 5.123475 0 
C 5.123475 -1.358762 4.583634 -2.662055 3.622844 -3.622844 
C 2.662055 -4.583634 1.358762 -5.123475 0 -5.123475 
C -1.358762 -5.123475 -2.662055 -4.583634 -3.622844 -3.622844 
C -4.583634 -2.662055 -5.123475 -1.358762 -5.123475 0 
C -5.123475 1.358762 -4.583634 2.662055 -3.622844 3.622844 
C -2.662055 4.583634 -1.358762 5.123475 0 5.123475 
z
" style="stroke: #000000; stroke-width: 0.55"/>
    </defs>
    <g clip-path="url(#p472e9916ce)">
     <use xlink:href="#me4aef10333" x="349.123676" y="172.506301" style="fill: #54a24b; fill-opacity: 0.656205; stroke: #000000; stroke-width: 0.55"/>
    </g>
   </g>
   <g id="PathCollection_2">
    <defs>
     <path id="md149139825" d="M -5.123475 5.123475 
L 5.123475 5.123475 
L 5.123475 -5.123475 
L -5.123475 -5.123475 
z
" style="stroke: #000000; stroke-width: 0.55"/>
    </defs>
    <g clip-path="url(#p472e9916ce)">
     <use xlink:href="#md149139825" x="374.740536" y="156.111713" style="fill: #54a24b; fill-opacity: 0.550772; stroke: #000000; stroke-width: 0.55"/>
    </g>
   </g>
   <g id="PathCollection_3">
    <defs>
     <path id="m026436b2ce" d="M 0 5.123475 
C 1.358762 5.123475 2.662055 4.583634 3.622844 3.622844 
C 4.583634 2.662055 5.123475 1.358762 5.123475 0 
C 5.123475 -1.358762 4.583634 -2.662055 3.622844 -3.622844 
C 2.662055 -4.583634 1.358762 -5.123475 0 -5.123475 
C -1.358762 -5.123475 -2.662055 -4.583634 -3.622844 -3.622844 
C -4.583634 -2.662055 -5.123475 -1.358762 -5.123475 0 
C -5.123475 1.358762 -4.583634 2.662055 -3.622844 3.622844 
C -2.662055 4.583634 -1.358762 5.123475 0 5.123475 
z
" style="stroke: #000000; stroke-width: 0.55"/>
    </defs>
    <g clip-path="url(#p472e9916ce)">
     <use xlink:href="#m026436b2ce" x="286.376525" y="282.448055" style="fill: #54a24b; fill-opacity: 0.653165; stroke: #000000; stroke-width: 0.55"/>
    </g>
   </g>
   <g id="PathCollection_4">
    <defs>
     <path id="m219d84e904" d="M -5.123475 5.123475 
L 5.123475 5.123475 
L 5.123475 -5.123475 
L -5.123475 -5.123475 
z
" style="stroke: #000000; stroke-width: 0.55"/>
    </defs>
    <g clip-path="url(#p472e9916ce)">
     <use xlink:href="#m219d84e904" x="271.443388" y="284.427772" style="fill: #e45756; fill-opacity: 0.385159; stroke: #000000; stroke-width: 0.55"/>
    </g>
   </g>
   <g id="PathCollection_5">
    <defs>
     <path id="mdc226cc3b4" d="M 0 5.123475 
C 1.358762 5.123475 2.662055 4.583634 3.622844 3.622844 
C 4.583634 2.662055 5.123475 1.358762 5.123475 0 
C 5.123475 -1.358762 4.583634 -2.662055 3.622844 -3.622844 
C 2.662055 -4.583634 1.358762 -5.123475 0 -5.123475 
C -1.358762 -5.123475 -2.662055 -4.583634 -3.622844 -3.622844 
C -4.583634 -2.662055 -5.123475 -1.358762 -5.123475 0 
C -5.123475 1.358762 -4.583634 2.662055 -3.622844 3.622844 
C -2.662055 4.583634 -1.358762 5.123475 0 5.123475 
z
" style="stroke: #000000; stroke-width: 0.55"/>
    </defs>
    <g clip-path="url(#p472e9916ce)">
     <use xlink:href="#mdc226cc3b4" x="96.653964" y="206.65447" style="fill: #e45756; fill-opacity: 0.88; stroke: #000000; stroke-width: 0.55"/>
    </g>
   </g>
   <g id="PathCollection_6">
    <defs>
     <path id="ma53b1ac4f7" d="M -5.123475 5.123475 
L 5.123475 5.123475 
L 5.123475 -5.123475 
L -5.123475 -5.123475 
z
" style="stroke: #000000; stroke-width: 0.55"/>
    </defs>
    <g clip-path="url(#p472e9916ce)">
     <use xlink:href="#ma53b1ac4f7" x="532.030168" y="202.553535" style="fill: #e45756; fill-opacity: 0.790468; stroke: #000000; stroke-width: 0.55"/>
    </g>
   </g>
   <g id="PathCollection_7">
    <defs>
     <path id="m9e7cd65171" d="M 0 5.123475 
C 1.358762 5.123475 2.662055 4.583634 3.622844 3.622844 
C 4.583634 2.662055 5.123475 1.358762 5.123475 0 
C 5.123475 -1.358762 4.583634 -2.662055 3.622844 -3.622844 
C 2.662055 -4.583634 1.358762 -5.123475 0 -5.123475 
C -1.358762 -5.123475 -2.662055 -4.583634 -3.622844 -3.622844 
C -4.583634 -2.662055 -5.123475 -1.358762 -5.123475 0 
C -5.123475 1.358762 -4.583634 2.662055 -3.622844 3.622844 
C -2.662055 4.583634 -1.358762 5.123475 0 5.123475 
z
" style="stroke: #000000; stroke-width: 0.55"/>
    </defs>
    <g clip-path="url(#p472e9916ce)">
     <use xlink:href="#m9e7cd65171" x="315.10402" y="173.035159" style="fill: #54a24b; fill-opacity: 0.442715; stroke: #000000; stroke-width: 0.55"/>
    </g>
   </g>
   <g id="PathCollection_8">
    <defs>
     <path id="mcb6a0cb0b2" d="M -5.123475 5.123475 
L 5.123475 5.123475 
L 5.123475 -5.123475 
L -5.123475 -5.123475 
z
" style="stroke: #000000; stroke-width: 0.55"/>
    </defs>
    <g clip-path="url(#p472e9916ce)">
     <use xlink:href="#mcb6a0cb0b2" x="373.690187" y="67.792478" style="fill: #54a24b; fill-opacity: 0.9; stroke: #000000; stroke-width: 0.55"/>
    </g>
   </g>
   <g id="legend_1">
    <g id="line2d_32">
     <defs>
      <path id="mc4a762df63" d="M 0 4 
C 1.060812 4 2.078319 3.578535 2.828427 2.828427 
C 3.578535 2.078319 4 1.060812 4 0 
C 4 -1.060812 3.578535 -2.078319 2.828427 -2.828427 
C 2.078319 -3.578535 1.060812 -4 0 -4 
C -1.060812 -4 -2.078319 -3.578535 -2.828427 -2.828427 
C -3.578535 -2.078319 -4 -1.060812 -4 0 
C -4 1.060812 -3.578535 2.078319 -2.828427 2.828427 
C -2.078319 3.578535 -1.060812 4 0 4 
z
" style="stroke: #000000"/>
     </defs>
     <g>
      <use xlink:href="#mc4a762df63" x="470.630312" y="239.773375" style="fill: #ffffff; stroke: #000000"/>
     </g>
    </g>
    <g id="text_31">
     <!-- last_CV (circle) -->
     <g transform="translate(485.030312 242.573375) scale(0.08 -0.08)">
      <use xlink:href="#DejaVuSans-6c"/>
      <use xlink:href="#DejaVuSans-61" transform="translate(27.783203 0)"/>
      <use xlink:href="#DejaVuSans-73" transform="translate(89.0625 0)"/>
      <use xlink:href="#DejaVuSans-74" transform="translate(141.162109 0)"/>
      <use xlink:href="#DejaVuSans-5f" transform="translate(180.371094 0)"/>
      <use xlink:href="#DejaVuSans-43" transform="translate(230.371094 0)"/>
      <use xlink:href="#DejaVuSans-56" transform="translate(300.195312 0)"/>
      <use xlink:href="#DejaVuSans-20" transform="translate(368.603516 0)"/>
      <use xlink:href="#DejaVuSans-28" transform="translate(400.390625 0)"/>
      <use xlink:href="#DejaVuSans-63" transform="translate(439.404297 0)"/>
      <use xlink:href="#DejaVuSans-69" transform="translate(494.384766 0)"/>
      <use xlink:href="#DejaVuSans-72" transform="translate(522.167969 0)"/>
      <use xlink:href="#DejaVuSans-63" transform="translate(561.03125 0)"/>
      <use xlink:href="#DejaVuSans-6c" transform="translate(616.011719 0)"/>
      <use xlink:href="#DejaVuSans-65" transform="translate(643.794922 0)"/>
      <use xlink:href="#DejaVuSans-29" transform="translate(705.318359 0)"/>
     </g>
    </g>
    <g id="line2d_33">
     <defs>
      <path id="m44f8901bb5" d="M -4 4 
L 4 4 
L 4 -4 
L -4 -4 
z
" style="stroke: #000000; stroke-linejoin: miter"/>
     </defs>
     <g>
      <use xlink:href="#m44f8901bb5" x="470.630312" y="251.738375" style="fill: #ffffff; stroke: #000000; stroke-linejoin: miter"/>
     </g>
    </g>
    <g id="text_32">
     <!-- final_refit (square) -->
     <g transform="translate(485.030312 254.538375) scale(0.08 -0.08)">
      <defs>
       <path id="DejaVuSans-71" d="M 947 1747 
Q 947 1113 1208 752 
Q 1469 391 1925 391 
Q 2381 391 2643 752 
Q 2906 1113 2906 1747 
Q 2906 2381 2643 2742 
Q 2381 3103 1925 3103 
Q 1469 3103 1208 2742 
Q 947 2381 947 1747 
z
M 2906 525 
Q 2725 213 2448 61 
Q 2172 -91 1784 -91 
Q 1150 -91 751 415 
Q 353 922 353 1747 
Q 353 2572 751 3078 
Q 1150 3584 1784 3584 
Q 2172 3584 2448 3432 
Q 2725 3281 2906 2969 
L 2906 3500 
L 3481 3500 
L 3481 -1331 
L 2906 -1331 
L 2906 525 
z
" transform="scale(0.015625)"/>
      </defs>
      <use xlink:href="#DejaVuSans-66"/>
      <use xlink:href="#DejaVuSans-69" transform="translate(35.205078 0)"/>
      <use xlink:href="#DejaVuSans-6e" transform="translate(62.988281 0)"/>
      <use xlink:href="#DejaVuSans-61" transform="translate(126.367188 0)"/>
      <use xlink:href="#DejaVuSans-6c" transform="translate(187.646484 0)"/>
      <use xlink:href="#DejaVuSans-5f" transform="translate(215.429688 0)"/>
      <use xlink:href="#DejaVuSans-72" transform="translate(265.429688 0)"/>
      <use xlink:href="#DejaVuSans-65" transform="translate(304.292969 0)"/>
      <use xlink:href="#DejaVuSans-66" transform="translate(365.816406 0)"/>
      <use xlink:href="#DejaVuSans-69" transform="translate(401.021484 0)"/>
      <use xlink:href="#DejaVuSans-74" transform="translate(428.804688 0)"/>
      <use xlink:href="#DejaVuSans-20" transform="translate(468.013672 0)"/>
      <use xlink:href="#DejaVuSans-28" transform="translate(499.800781 0)"/>
      <use xlink:href="#DejaVuSans-73" transform="translate(538.814453 0)"/>
      <use xlink:href="#DejaVuSans-71" transform="translate(590.914062 0)"/>
      <use xlink:href="#DejaVuSans-75" transform="translate(654.390625 0)"/>
      <use xlink:href="#DejaVuSans-61" transform="translate(717.769531 0)"/>
      <use xlink:href="#DejaVuSans-72" transform="translate(779.048828 0)"/>
      <use xlink:href="#DejaVuSans-65" transform="translate(817.912109 0)"/>
      <use xlink:href="#DejaVuSans-29" transform="translate(879.435547 0)"/>
     </g>
    </g>
    <g id="line2d_34">
     <defs>
      <path id="md0c294b8bc" d="M 0 4 
C 1.060812 4 2.078319 3.578535 2.828427 2.828427 
C 3.578535 2.078319 4 1.060812 4 0 
C 4 -1.060812 3.578535 -2.078319 2.828427 -2.828427 
C 2.078319 -3.578535 1.060812 -4 0 -4 
C -1.060812 -4 -2.078319 -3.578535 -2.828427 -2.828427 
C -3.578535 -2.078319 -4 -1.060812 -4 0 
C -4 1.060812 -3.578535 2.078319 -2.828427 2.828427 
C -2.078319 3.578535 -1.060812 4 0 4 
z
" style="stroke: #000000"/>
     </defs>
     <g>
      <use xlink:href="#md0c294b8bc" x="470.630312" y="264.023375" style="fill: #54a24b; stroke: #000000"/>
     </g>
    </g>
    <g id="text_33">
     <!-- positive `pnl_sum` -->
     <g transform="translate(485.030312 266.823375) scale(0.08 -0.08)">
      <use xlink:href="#DejaVuSans-70"/>
      <use xlink:href="#DejaVuSans-6f" transform="translate(63.476562 0)"/>
      <use xlink:href="#DejaVuSans-73" transform="translate(124.658203 0)"/>
      <use xlink:href="#DejaVuSans-69" transform="translate(176.757812 0)"/>
      <use xlink:href="#DejaVuSans-74" transform="translate(204.541016 0)"/>
      <use xlink:href="#DejaVuSans-69" transform="translate(243.75 0)"/>
      <use xlink:href="#DejaVuSans-76" transform="translate(271.533203 0)"/>
      <use xlink:href="#DejaVuSans-65" transform="translate(330.712891 0)"/>
      <use xlink:href="#DejaVuSans-20" transform="translate(392.236328 0)"/>
      <use xlink:href="#DejaVuSans-60" transform="translate(424.023438 0)"/>
      <use xlink:href="#DejaVuSans-70" transform="translate(474.023438 0)"/>
      <use xlink:href="#DejaVuSans-6e" transform="translate(537.5 0)"/>
      <use xlink:href="#DejaVuSans-6c" transform="translate(600.878906 0)"/>
      <use xlink:href="#DejaVuSans-5f" transform="translate(628.662109 0)"/>
      <use xlink:href="#DejaVuSans-73" transform="translate(678.662109 0)"/>
      <use xlink:href="#DejaVuSans-75" transform="translate(730.761719 0)"/>
      <use xlink:href="#DejaVuSans-6d" transform="translate(794.140625 0)"/>
      <use xlink:href="#DejaVuSans-60" transform="translate(891.552734 0)"/>
     </g>
    </g>
    <g id="line2d_35">
     <defs>
      <path id="m921b4effc1" d="M 0 4 
C 1.060812 4 2.078319 3.578535 2.828427 2.828427 
C 3.578535 2.078319 4 1.060812 4 0 
C 4 -1.060812 3.578535 -2.078319 2.828427 -2.828427 
C 2.078319 -3.578535 1.060812 -4 0 -4 
C -1.060812 -4 -2.078319 -3.578535 -2.828427 -2.828427 
C -3.578535 -2.078319 -4 -1.060812 -4 0 
C -4 1.060812 -3.578535 2.078319 -2.828427 2.828427 
C -2.078319 3.578535 -1.060812 4 0 4 
z
" style="stroke: #000000"/>
     </defs>
     <g>
      <use xlink:href="#m921b4effc1" x="470.630312" y="276.308375" style="fill: #e45756; stroke: #000000"/>
     </g>
    </g>
    <g id="text_34">
     <!-- negative `pnl_sum` -->
     <g transform="translate(485.030312 279.108375) scale(0.08 -0.08)">
      <use xlink:href="#DejaVuSans-6e"/>
      <use xlink:href="#DejaVuSans-65" transform="translate(63.378906 0)"/>
      <use xlink:href="#DejaVuSans-67" transform="translate(124.902344 0)"/>
      <use xlink:href="#DejaVuSans-61" transform="translate(188.378906 0)"/>
      <use xlink:href="#DejaVuSans-74" transform="translate(249.658203 0)"/>
      <use xlink:href="#DejaVuSans-69" transform="translate(288.867188 0)"/>
      <use xlink:href="#DejaVuSans-76" transform="translate(316.650391 0)"/>
      <use xlink:href="#DejaVuSans-65" transform="translate(375.830078 0)"/>
      <use xlink:href="#DejaVuSans-20" transform="translate(437.353516 0)"/>
      <use xlink:href="#DejaVuSans-60" transform="translate(469.140625 0)"/>
      <use xlink:href="#DejaVuSans-70" transform="translate(519.140625 0)"/>
      <use xlink:href="#DejaVuSans-6e" transform="translate(582.617188 0)"/>
      <use xlink:href="#DejaVuSans-6c" transform="translate(645.996094 0)"/>
      <use xlink:href="#DejaVuSans-5f" transform="translate(673.779297 0)"/>
      <use xlink:href="#DejaVuSans-73" transform="translate(723.779297 0)"/>
      <use xlink:href="#DejaVuSans-75" transform="translate(775.878906 0)"/>
      <use xlink:href="#DejaVuSans-6d" transform="translate(839.257812 0)"/>
      <use xlink:href="#DejaVuSans-60" transform="translate(936.669922 0)"/>
     </g>
    </g>
    <g id="line2d_36">
     <path d="M 462.630312 288.273375 
L 470.630312 288.273375 
L 478.630312 288.273375 
" style="fill: none; stroke: #4c78a8; stroke-width: 1.7; stroke-linecap: square"/>
    </g>
    <g id="text_35">
     <!-- base-gnn transition -->
     <g transform="translate(485.030312 291.073375) scale(0.08 -0.08)">
      <use xlink:href="#DejaVuSans-62"/>
      <use xlink:href="#DejaVuSans-61" transform="translate(63.476562 0)"/>
      <use xlink:href="#DejaVuSans-73" transform="translate(124.755859 0)"/>
      <use xlink:href="#DejaVuSans-65" transform="translate(176.855469 0)"/>
      <use xlink:href="#DejaVuSans-2d" transform="translate(238.378906 0)"/>
      <use xlink:href="#DejaVuSans-67" transform="translate(274.462891 0)"/>
      <use xlink:href="#DejaVuSans-6e" transform="translate(337.939453 0)"/>
      <use xlink:href="#DejaVuSans-6e" transform="translate(401.318359 0)"/>
      <use xlink:href="#DejaVuSans-20" transform="translate(464.697266 0)"/>
      <use xlink:href="#DejaVuSans-74" transform="translate(496.484375 0)"/>
      <use xlink:href="#DejaVuSans-72" transform="translate(535.693359 0)"/>
      <use xlink:href="#DejaVuSans-61" transform="translate(576.806641 0)"/>
      <use xlink:href="#DejaVuSans-6e" transform="translate(638.085938 0)"/>
      <use xlink:href="#DejaVuSans-73" transform="translate(701.464844 0)"/>
      <use xlink:href="#DejaVuSans-69" transform="translate(753.564453 0)"/>
      <use xlink:href="#DejaVuSans-74" transform="translate(781.347656 0)"/>
      <use xlink:href="#DejaVuSans-69" transform="translate(820.556641 0)"/>
      <use xlink:href="#DejaVuSans-6f" transform="translate(848.339844 0)"/>
      <use xlink:href="#DejaVuSans-6e" transform="translate(909.521484 0)"/>
     </g>
    </g>
    <g id="line2d_37">
     <path d="M 462.630312 300.015875 
L 470.630312 300.015875 
L 478.630312 300.015875 
" style="fill: none; stroke: #72b7b2; stroke-width: 1.7; stroke-linecap: square"/>
    </g>
    <g id="text_36">
     <!-- multi-gnn transition -->
     <g transform="translate(485.030312 302.815875) scale(0.08 -0.08)">
      <use xlink:href="#DejaVuSans-6d"/>
      <use xlink:href="#DejaVuSans-75" transform="translate(97.412109 0)"/>
      <use xlink:href="#DejaVuSans-6c" transform="translate(160.791016 0)"/>
      <use xlink:href="#DejaVuSans-74" transform="translate(188.574219 0)"/>
      <use xlink:href="#DejaVuSans-69" transform="translate(227.783203 0)"/>
      <use xlink:href="#DejaVuSans-2d" transform="translate(255.566406 0)"/>
      <use xlink:href="#DejaVuSans-67" transform="translate(291.650391 0)"/>
      <use xlink:href="#DejaVuSans-6e" transform="translate(355.126953 0)"/>
      <use xlink:href="#DejaVuSans-6e" transform="translate(418.505859 0)"/>
      <use xlink:href="#DejaVuSans-20" transform="translate(481.884766 0)"/>
      <use xlink:href="#DejaVuSans-74" transform="translate(513.671875 0)"/>
      <use xlink:href="#DejaVuSans-72" transform="translate(552.880859 0)"/>
      <use xlink:href="#DejaVuSans-61" transform="translate(593.994141 0)"/>
      <use xlink:href="#DejaVuSans-6e" transform="translate(655.273438 0)"/>
      <use xlink:href="#DejaVuSans-73" transform="translate(718.652344 0)"/>
      <use xlink:href="#DejaVuSans-69" transform="translate(770.751953 0)"/>
      <use xlink:href="#DejaVuSans-74" transform="translate(798.535156 0)"/>
      <use xlink:href="#DejaVuSans-69" transform="translate(837.744141 0)"/>
      <use xlink:href="#DejaVuSans-6f" transform="translate(865.527344 0)"/>
      <use xlink:href="#DejaVuSans-6e" transform="translate(926.708984 0)"/>
     </g>
    </g>
    <g id="line2d_38">
     <path d="M 462.630312 311.758375 
L 470.630312 311.758375 
L 478.630312 311.758375 
" style="fill: none; stroke: #f58518; stroke-width: 1.7; stroke-linecap: square"/>
    </g>
    <g id="text_37">
     <!-- memory-gnn transition -->
     <g transform="translate(485.030312 314.558375) scale(0.08 -0.08)">
      <use xlink:href="#DejaVuSans-6d"/>
      <use xlink:href="#DejaVuSans-65" transform="translate(97.412109 0)"/>
      <use xlink:href="#DejaVuSans-6d" transform="translate(158.935547 0)"/>
      <use xlink:href="#DejaVuSans-6f" transform="translate(256.347656 0)"/>
      <use xlink:href="#DejaVuSans-72" transform="translate(317.529297 0)"/>
      <use xlink:href="#DejaVuSans-79" transform="translate(358.642578 0)"/>
      <use xlink:href="#DejaVuSans-2d" transform="translate(416.072266 0)"/>
      <use xlink:href="#DejaVuSans-67" transform="translate(452.15625 0)"/>
      <use xlink:href="#DejaVuSans-6e" transform="translate(515.632812 0)"/>
      <use xlink:href="#DejaVuSans-6e" transform="translate(579.011719 0)"/>
      <use xlink:href="#DejaVuSans-20" transform="translate(642.390625 0)"/>
      <use xlink:href="#DejaVuSans-74" transform="translate(674.177734 0)"/>
      <use xlink:href="#DejaVuSans-72" transform="translate(713.386719 0)"/>
      <use xlink:href="#DejaVuSans-61" transform="translate(754.5 0)"/>
      <use xlink:href="#DejaVuSans-6e" transform="translate(815.779297 0)"/>
      <use xlink:href="#DejaVuSans-73" transform="translate(879.158203 0)"/>
      <use xlink:href="#DejaVuSans-69" transform="translate(931.257812 0)"/>
      <use xlink:href="#DejaVuSans-74" transform="translate(959.041016 0)"/>
      <use xlink:href="#DejaVuSans-69" transform="translate(998.25 0)"/>
      <use xlink:href="#DejaVuSans-6f" transform="translate(1026.033203 0)"/>
      <use xlink:href="#DejaVuSans-6e" transform="translate(1087.214844 0)"/>
     </g>
    </g>
   </g>
  </g>
 </g>
 <defs>
  <clipPath id="p472e9916ce">
   <rect x="48.595313" y="28.798125" width="535.68" height="294.624"/>
  </clipPath>
 </defs>
</svg>
